solid BME680_002
facet normal 0.0 1.0 0.0
outer loop
vertex 54.1501943657319 46.2755905273419 5.5
vertex 73.3501943657319 46.2755905273419 4.0
vertex 54.1501943657319 46.2755905273419 4.0
endloop
endfacet
facet normal 0.0 1.0 0.0
outer loop
vertex 73.3501943657319 46.2755905273419 4.0
vertex 54.1501943657319 46.2755905273419 5.5
vertex 73.3501943657319 46.2755905273419 5.49999999999999
endloop
endfacet
facet normal -1.0 -1.56664804585994e-016 0.0
outer loop
vertex 52.2501943657319 44.6255905273419 5.5
vertex 52.2501943657319 26.6255905273419 4.0
vertex 52.2501943657319 26.6255905273419 5.5
endloop
endfacet
facet normal -1.0 -1.56664804585994e-016 0.0
outer loop
vertex 52.2501943657319 26.6255905273419 4.0
vertex 52.2501943657319 44.6255905273419 5.5
vertex 52.2501943657319 44.6255905273419 4.0
endloop
endfacet
facet normal 0.0 -1.0 0.0
outer loop
vertex 73.3501943657319 24.8755905273419 5.5
vertex 54.1501943657319 24.8755905273419 4.0
vertex 73.3501943657319 24.8755905273419 4.0
endloop
endfacet
facet normal 0.0 -1.0 0.0
outer loop
vertex 54.1501943657319 24.8755905273419 4.0
vertex 73.3501943657319 24.8755905273419 5.5
vertex 54.1501943657319 24.8755905273419 5.5
endloop
endfacet
facet normal -0.0 -1.0 -0.0
outer loop
vertex 73.3501943657319 26.8755905273419 4.0
vertex 54.1501943657319 26.8755905273419 3.5
vertex 73.3501943657319 26.8755905273419 3.5
endloop
endfacet
facet normal -0.0 -1.0 -0.0
outer loop
vertex 54.1501943657319 26.8755905273419 3.5
vertex 73.3501943657319 26.8755905273419 4.0
vertex 54.1501943657319 26.8755905273419 4.0
endloop
endfacet
facet normal 6.97369111089331e-018 1.55561835608852e-017 -1.0
outer loop
vertex 54.1501943657319 44.3755905273419 3.5
vertex 55.6501943657319 42.8755905273419 3.5
vertex 54.1501943657319 26.8755905273419 3.5
endloop
endfacet
facet normal 6.97369111089331e-018 1.55561835608852e-017 -1.0
outer loop
vertex 55.6501943657319 42.8755905273419 3.5
vertex 54.1501943657319 44.3755905273419 3.5
vertex 73.3501943657319 44.3755905273419 3.5
endloop
endfacet
facet normal 6.97369111089331e-018 1.55561835608852e-017 -1.0
outer loop
vertex 55.6501943657319 42.8755905273419 3.5
vertex 73.3501943657319 44.3755905273419 3.5
vertex 73.3501943657319 42.8755905273419 3.5
endloop
endfacet
facet normal 6.97369111089331e-018 1.55561835608852e-017 -1.0
outer loop
vertex 54.1501943657319 26.8755905273419 3.5
vertex 55.6501943657319 28.1255905273419 3.5
vertex 73.3501943657319 26.8755905273419 3.5
endloop
endfacet
facet normal 6.97369111089331e-018 1.55561835608852e-017 -1.0
outer loop
vertex 55.6501943657319 28.1255905273419 3.5
vertex 54.1501943657319 26.8755905273419 3.5
vertex 55.6501943657319 42.8755905273419 3.5
endloop
endfacet
facet normal 6.97369111089331e-018 1.55561835608852e-017 -1.0
outer loop
vertex 73.3501943657319 26.8755905273419 3.5
vertex 55.6501943657319 28.1255905273419 3.5
vertex 73.3501943657319 28.1255905273419 3.5
endloop
endfacet
facet normal -1.0 0.0 0.0
outer loop
vertex 54.1501943657319 44.3755905273419 4.0
vertex 54.1501943657319 26.8755905273419 3.5
vertex 54.1501943657319 26.8755905273419 4.0
endloop
endfacet
facet normal -1.0 0.0 0.0
outer loop
vertex 54.1501943657319 26.8755905273419 3.5
vertex 54.1501943657319 44.3755905273419 4.0
vertex 54.1501943657319 44.3755905273419 3.5
endloop
endfacet
facet normal 0.0 1.0 0.0
outer loop
vertex 54.1501943657319 44.3755905273419 4.0
vertex 73.3501943657319 44.3755905273419 3.5
vertex 54.1501943657319 44.3755905273419 3.5
endloop
endfacet
facet normal 0.0 1.0 0.0
outer loop
vertex 73.3501943657319 44.3755905273419 3.5
vertex 54.1501943657319 44.3755905273419 4.0
vertex 73.3501943657319 44.3755905273419 4.0
endloop
endfacet
facet normal 1.0 0.0 0.0
outer loop
vertex 73.3501943657319 44.3755905273419 3.5
vertex 73.3501943657319 42.8755905273419 4.0
vertex 73.3501943657319 42.8755905273419 3.5
endloop
endfacet
facet normal 1.0 0.0 0.0
outer loop
vertex 73.3501943657319 42.8755905273419 4.0
vertex 73.3501943657319 44.3755905273419 3.5
vertex 73.3501943657319 44.3755905273419 4.0
endloop
endfacet
facet normal 1.0 0.0 0.0
outer loop
vertex 55.6501943657319 42.8755905273419 3.5
vertex 55.6501943657319 28.1255905273419 4.2
vertex 55.6501943657319 28.1255905273419 3.5
endloop
endfacet
facet normal 1.0 0.0 0.0
outer loop
vertex 55.6501943657319 28.1255905273419 4.2
vertex 55.6501943657319 42.8755905273419 3.5
vertex 55.6501943657319 42.8755905273419 4.2
endloop
endfacet
facet normal 0.655686655446242 0.755033118392644 -6.4240798826217e-017
outer loop
vertex 73.3501943657319 46.2755905273419 5.49999999999999
vertex 75.2501943657319 44.6255905273419 4.0
vertex 73.3501943657319 46.2755905273419 4.0
endloop
endfacet
facet normal 0.655686655446242 0.755033118392644 -6.4240798826217e-017
outer loop
vertex 75.2501943657319 44.6255905273419 4.0
vertex 73.3501943657319 46.2755905273419 5.49999999999999
vertex 75.2501943657319 44.6255905273419 5.49999999999999
endloop
endfacet
facet normal 0.677475754751789 -0.735545105159088 0.0
outer loop
vertex 75.2501943657319 26.6255905273419 5.5
vertex 73.3501943657319 24.8755905273419 4.0
vertex 75.2501943657319 26.6255905273419 4.0
endloop
endfacet
facet normal 0.677475754751789 -0.735545105159088 0.0
outer loop
vertex 73.3501943657319 24.8755905273419 4.0
vertex 75.2501943657319 26.6255905273419 5.5
vertex 73.3501943657319 24.8755905273419 5.5
endloop
endfacet
facet normal -0.677475754751793 -0.735545105159084 0.0
outer loop
vertex 54.1501943657319 24.8755905273419 5.5
vertex 52.2501943657319 26.6255905273419 4.0
vertex 54.1501943657319 24.8755905273419 4.0
endloop
endfacet
facet normal -0.677475754751793 -0.735545105159084 0.0
outer loop
vertex 52.2501943657319 26.6255905273419 4.0
vertex 54.1501943657319 24.8755905273419 5.5
vertex 52.2501943657319 26.6255905273419 5.5
endloop
endfacet
facet normal -0.655686655446244 0.755033118392642 0.0
outer loop
vertex 52.2501943657319 44.6255905273419 5.5
vertex 54.1501943657319 46.2755905273419 4.0
vertex 52.2501943657319 44.6255905273419 4.0
endloop
endfacet
facet normal -0.655686655446244 0.755033118392642 0.0
outer loop
vertex 54.1501943657319 46.2755905273419 4.0
vertex 52.2501943657319 44.6255905273419 5.5
vertex 54.1501943657319 46.2755905273419 5.5
endloop
endfacet
facet normal 0.0 -1.0 0.0
outer loop
vertex 75.2501943657319 42.8755905273419 5.5
vertex 73.3501943657319 42.8755905273419 4.0
vertex 75.2501943657319 42.8755905273419 4.0
endloop
endfacet
facet normal 0.0 -1.0 0.0
outer loop
vertex 73.3501943657319 42.8755905273419 4.0
vertex 75.2501943657319 42.8755905273419 5.5
vertex 70.3501943657319 42.8755905273419 4.2
endloop
endfacet
facet normal 0.0 -1.0 0.0
outer loop
vertex 70.3501943657319 42.8755905273419 4.2
vertex 75.2501943657319 42.8755905273419 5.5
vertex 70.3501943657319 42.8755905273419 5.5
endloop
endfacet
facet normal 0.0 -1.0 0.0
outer loop
vertex 73.3501943657319 42.8755905273419 4.0
vertex 55.6501943657319 42.8755905273419 3.5
vertex 73.3501943657319 42.8755905273419 3.5
endloop
endfacet
facet normal 0.0 -1.0 0.0
outer loop
vertex 55.6501943657319 42.8755905273419 3.5
vertex 73.3501943657319 42.8755905273419 4.0
vertex 55.6501943657319 42.8755905273419 4.2
endloop
endfacet
facet normal 0.0 -1.0 0.0
outer loop
vertex 55.6501943657319 42.8755905273419 4.2
vertex 73.3501943657319 42.8755905273419 4.0
vertex 70.3501943657319 42.8755905273419 4.2
endloop
endfacet
facet normal 1.0 0.0 0.0
outer loop
vertex 73.3501943657319 28.1255905273419 3.5
vertex 73.3501943657319 26.8755905273419 4.0
vertex 73.3501943657319 26.8755905273419 3.5
endloop
endfacet
facet normal 1.0 0.0 0.0
outer loop
vertex 73.3501943657319 26.8755905273419 4.0
vertex 73.3501943657319 28.1255905273419 3.5
vertex 73.3501943657319 28.1255905273419 4.0
endloop
endfacet
facet normal -3.38040207364642e-017 -2.54219082940488e-017 -1.0
outer loop
vertex 55.6501943657319 42.8755905273419 4.2
vertex 62.9637518065372 36.7809593266708 4.2
vertex 55.6501943657319 28.1255905273419 4.2
endloop
endfacet
facet normal -3.38040207364642e-017 -2.54219082940488e-017 -1.0
outer loop
vertex 62.9637518065372 36.7809593266708 4.2
vertex 55.6501943657319 42.8755905273419 4.2
vertex 63.3474886472174 37.1349924138141 4.2
endloop
endfacet
facet normal -3.38040207364642e-017 -2.54219082940488e-017 -1.0
outer loop
vertex 63.3474886472174 37.1349924138141 4.2
vertex 55.6501943657319 42.8755905273419 4.2
vertex 69.2895341939521 42.4362506991217 4.2
endloop
endfacet
facet normal -3.38040207364642e-017 -2.54219082940488e-017 -1.0
outer loop
vertex 69.2895341939521 42.4362506991217 4.2
vertex 55.6501943657319 42.8755905273419 4.2
vertex 69.6001943657319 42.6746286330185 4.2
endloop
endfacet
facet normal -3.38040207364642e-017 -2.54219082940488e-017 -1.0
outer loop
vertex 69.6001943657319 42.6746286330185 4.2
vertex 55.6501943657319 42.8755905273419 4.2
vertex 69.9619657980782 42.8244792667755 4.2
endloop
endfacet
facet normal -3.38040207364642e-017 -2.54219082940488e-017 -1.0
outer loop
vertex 69.9619657980782 42.8244792667755 4.2
vertex 55.6501943657319 42.8755905273419 4.2
vertex 70.3501943657319 42.8755905273419 4.2
endloop
endfacet
facet normal -3.38040207364642e-017 -2.54219082940488e-017 -1.0
outer loop
vertex 55.6501943657319 28.1255905273419 4.2
vertex 62.9637518065372 36.7809593266708 4.2
vertex 62.6847209871747 36.3396712217628 4.2
endloop
endfacet
facet normal -3.38040207364642e-017 -2.54219082940488e-017 -1.0
outer loop
vertex 55.6501943657319 28.1255905273419 4.2
vertex 62.6847209871747 36.3396712217628 4.2
vertex 62.5294116783492 35.8412011541764 4.2
endloop
endfacet
facet normal -3.38040207364642e-017 -2.54219082940488e-017 -1.0
outer loop
vertex 55.6501943657319 28.1255905273419 4.2
vertex 62.5294116783492 35.8412011541764 4.2
vertex 62.5084079527965 35.3195190352568 4.2
endloop
endfacet
facet normal -3.38040207364642e-017 -2.54219082940488e-017 -1.0
outer loop
vertex 63.3474886472174 37.1349924138141 4.2
vertex 69.2895341939521 42.4362506991217 4.2
vertex 63.8097804776782 37.3776437133711 4.2
endloop
endfacet
facet normal -3.38040207364642e-017 -2.54219082940488e-017 -1.0
outer loop
vertex 63.8097804776782 37.3776437133711 4.2
vertex 69.2895341939521 42.4362506991217 4.2
vertex 64.3191228736469 37.4923769402773 4.2
endloop
endfacet
facet normal -3.38040207364642e-017 -2.54219082940488e-017 -1.0
outer loop
vertex 64.3191228736469 37.4923769402773 4.2
vertex 69.2895341939521 42.4362506991217 4.2
vertex 64.8408049925664 37.4713732147246 4.2
endloop
endfacet
facet normal -3.38040207364642e-017 -2.54219082940488e-017 -1.0
outer loop
vertex 64.8408049925664 37.4713732147246 4.2
vertex 69.2895341939521 42.4362506991217 4.2
vertex 65.3392750601528 37.3160639058991 4.2
endloop
endfacet
facet normal -3.38040207364642e-017 -2.54219082940488e-017 -1.0
outer loop
vertex 65.3392750601528 37.3160639058991 4.2
vertex 69.2895341939521 42.4362506991217 4.2
vertex 69.0511562600553 42.1255905273419 4.2
endloop
endfacet
facet normal -3.38040207364642e-017 -2.54219082940488e-017 -1.0
outer loop
vertex 65.3392750601528 37.3160639058991 4.2
vertex 69.0511562600553 42.1255905273419 4.2
vertex 65.7805631650609 37.0370330865366 4.2
endloop
endfacet
facet normal -3.38040207364642e-017 -2.54219082940488e-017 -1.0
outer loop
vertex 65.7805631650609 37.0370330865366 4.2
vertex 69.0511562600553 42.1255905273419 4.2
vertex 66.1345962522042 36.6532962458564 4.2
endloop
endfacet
facet normal -3.38040207364642e-017 -2.54219082940488e-017 -1.0
outer loop
vertex 66.1345962522042 36.6532962458564 4.2
vertex 69.0511562600553 42.1255905273419 4.2
vertex 66.3772475517612 36.1910044153956 4.2
endloop
endfacet
facet normal -3.38040207364642e-017 -2.54219082940488e-017 -1.0
outer loop
vertex 66.3772475517612 36.1910044153956 4.2
vertex 69.0511562600553 42.1255905273419 4.2
vertex 68.9013056262983 41.7638190949957 4.2
endloop
endfacet
facet normal -3.38040207364642e-017 -2.54219082940488e-017 -1.0
outer loop
vertex 66.3772475517612 36.1910044153956 4.2
vertex 68.9013056262983 41.7638190949957 4.2
vertex 66.4919807786673 35.6816620194269 4.2
endloop
endfacet
facet normal -3.38040207364642e-017 -2.54219082940488e-017 -1.0
outer loop
vertex 66.4919807786673 35.6816620194269 4.2
vertex 68.9013056262983 41.7638190949957 4.2
vertex 68.8501943657319 41.3755905273419 4.2
endloop
endfacet
facet normal -3.38040207364642e-017 -2.54219082940488e-017 -1.0
outer loop
vertex 55.6501943657319 28.1255905273419 4.2
vertex 69.9619657980782 28.1767017879083 4.2
vertex 70.3501943657319 28.1255905273419 4.2
endloop
endfacet
facet normal -3.38040207364642e-017 -2.54219082940488e-017 -1.0
outer loop
vertex 69.9619657980782 28.1767017879083 4.2
vertex 55.6501943657319 28.1255905273419 4.2
vertex 69.6001943657319 28.3265524216652 4.2
endloop
endfacet
facet normal -3.38040207364642e-017 -2.54219082940488e-017 -1.0
outer loop
vertex 69.6001943657319 28.3265524216652 4.2
vertex 55.6501943657319 28.1255905273419 4.2
vertex 69.2895341939521 28.5649303555621 4.2
endloop
endfacet
facet normal -3.38040207364642e-017 -2.54219082940488e-017 -1.0
outer loop
vertex 69.2895341939521 28.5649303555621 4.2
vertex 55.6501943657319 28.1255905273419 4.2
vertex 63.219825566403 33.9641479681471 4.2
endloop
endfacet
facet normal -3.38040207364642e-017 -2.54219082940488e-017 -1.0
outer loop
vertex 63.219825566403 33.9641479681471 4.2
vertex 55.6501943657319 28.1255905273419 4.2
vertex 62.8657924792597 34.3478848088274 4.2
endloop
endfacet
facet normal -3.38040207364642e-017 -2.54219082940488e-017 -1.0
outer loop
vertex 62.8657924792597 34.3478848088274 4.2
vertex 55.6501943657319 28.1255905273419 4.2
vertex 62.6231411797027 34.8101766392881 4.2
endloop
endfacet
facet normal -3.38040207364642e-017 -2.54219082940488e-017 -1.0
outer loop
vertex 62.6231411797027 34.8101766392881 4.2
vertex 55.6501943657319 28.1255905273419 4.2
vertex 62.5084079527965 35.3195190352568 4.2
endloop
endfacet
facet normal -3.38040207364642e-017 -2.54219082940488e-017 -1.0
outer loop
vertex 69.2895341939521 28.5649303555621 4.2
vertex 63.219825566403 33.9641479681471 4.2
vertex 63.661113671311 33.6851171487846 4.2
endloop
endfacet
facet normal -3.38040207364642e-017 -2.54219082940488e-017 -1.0
outer loop
vertex 69.2895341939521 28.5649303555621 4.2
vertex 63.661113671311 33.6851171487846 4.2
vertex 64.1595837388974 33.5298078399592 4.2
endloop
endfacet
facet normal -3.38040207364642e-017 -2.54219082940488e-017 -1.0
outer loop
vertex 69.2895341939521 28.5649303555621 4.2
vertex 64.1595837388974 33.5298078399592 4.2
vertex 64.681265857817 33.5088041144065 4.2
endloop
endfacet
facet normal -3.38040207364642e-017 -2.54219082940488e-017 -1.0
outer loop
vertex 69.2895341939521 28.5649303555621 4.2
vertex 64.681265857817 33.5088041144065 4.2
vertex 65.1906082537857 33.6235373413126 4.2
endloop
endfacet
facet normal -3.38040207364642e-017 -2.54219082940488e-017 -1.0
outer loop
vertex 69.2895341939521 28.5649303555621 4.2
vertex 65.1906082537857 33.6235373413126 4.2
vertex 69.0511562600553 28.8755905273419 4.2
endloop
endfacet
facet normal -3.38040207364642e-017 -2.54219082940488e-017 -1.0
outer loop
vertex 69.0511562600553 28.8755905273419 4.2
vertex 65.1906082537857 33.6235373413126 4.2
vertex 65.6529000842464 33.8661886408696 4.2
endloop
endfacet
facet normal -3.38040207364642e-017 -2.54219082940488e-017 -1.0
outer loop
vertex 69.0511562600553 28.8755905273419 4.2
vertex 65.6529000842464 33.8661886408696 4.2
vertex 66.0366369249267 34.2202217280129 4.2
endloop
endfacet
facet normal -3.38040207364642e-017 -2.54219082940488e-017 -1.0
outer loop
vertex 69.0511562600553 28.8755905273419 4.2
vertex 66.0366369249267 34.2202217280129 4.2
vertex 66.3156677442892 34.661509832921 4.2
endloop
endfacet
facet normal -3.38040207364642e-017 -2.54219082940488e-017 -1.0
outer loop
vertex 69.0511562600553 28.8755905273419 4.2
vertex 66.3156677442892 34.661509832921 4.2
vertex 68.9013056262983 29.2373619596881 4.2
endloop
endfacet
facet normal -3.38040207364642e-017 -2.54219082940488e-017 -1.0
outer loop
vertex 68.9013056262983 29.2373619596881 4.2
vertex 66.3156677442892 34.661509832921 4.2
vertex 66.4709770531146 35.1599799005074 4.2
endloop
endfacet
facet normal -3.38040207364642e-017 -2.54219082940488e-017 -1.0
outer loop
vertex 68.9013056262983 29.2373619596881 4.2
vertex 66.4709770531146 35.1599799005074 4.2
vertex 66.4919807786673 35.6816620194269 4.2
endloop
endfacet
facet normal -3.38040207364642e-017 -2.54219082940488e-017 -1.0
outer loop
vertex 68.9013056262983 29.2373619596881 4.2
vertex 66.4919807786673 35.6816620194269 4.2
vertex 68.8501943657319 29.6255905273419 4.2
endloop
endfacet
facet normal -3.38040207364642e-017 -2.54219082940488e-017 -1.0
outer loop
vertex 68.8501943657319 29.6255905273419 4.2
vertex 66.4919807786673 35.6816620194269 4.2
vertex 68.8501943657319 41.3755905273419 4.2
endloop
endfacet
facet normal -1.38782481006548e-017 1.60656755232325e-017 -1.0
outer loop
vertex 73.3501943657319 46.2755905273419 4.0
vertex 54.1501943657319 44.3755905273419 4.0
vertex 54.1501943657319 46.2755905273419 4.0
endloop
endfacet
facet normal -1.38782481006548e-017 1.60656755232325e-017 -1.0
outer loop
vertex 54.1501943657319 44.3755905273419 4.0
vertex 73.3501943657319 46.2755905273419 4.0
vertex 73.3501943657319 44.3755905273419 4.0
endloop
endfacet
facet normal -1.38782481006548e-017 1.60656755232325e-017 -1.0
outer loop
vertex 73.3501943657319 44.3755905273419 4.0
vertex 73.3501943657319 46.2755905273419 4.0
vertex 75.2501943657319 44.6255905273419 4.0
endloop
endfacet
facet normal -1.38782481006548e-017 1.60656755232325e-017 -1.0
outer loop
vertex 73.3501943657319 44.3755905273419 4.0
vertex 75.2501943657319 44.6255905273419 4.0
vertex 73.3501943657319 42.8755905273419 4.0
endloop
endfacet
facet normal -1.38782481006548e-017 1.60656755232325e-017 -1.0
outer loop
vertex 73.3501943657319 42.8755905273419 4.0
vertex 75.2501943657319 44.6255905273419 4.0
vertex 75.2501943657319 42.8755905273419 4.0
endloop
endfacet
facet normal -1.38782481006548e-017 1.60656755232325e-017 -1.0
outer loop
vertex 75.2501943657319 28.1255905273419 4.0
vertex 73.3501943657319 26.8755905273419 4.0
vertex 73.3501943657319 28.1255905273419 4.0
endloop
endfacet
facet normal -1.38782481006548e-017 1.60656755232325e-017 -1.0
outer loop
vertex 73.3501943657319 26.8755905273419 4.0
vertex 75.2501943657319 28.1255905273419 4.0
vertex 73.3501943657319 24.8755905273419 4.0
endloop
endfacet
facet normal -1.38782481006548e-017 1.60656755232325e-017 -1.0
outer loop
vertex 73.3501943657319 24.8755905273419 4.0
vertex 75.2501943657319 28.1255905273419 4.0
vertex 75.2501943657319 26.6255905273419 4.0
endloop
endfacet
facet normal -1.38782481006548e-017 1.60656755232325e-017 -1.0
outer loop
vertex 54.1501943657319 46.2755905273419 4.0
vertex 52.2501943657319 26.6255905273419 4.0
vertex 52.2501943657319 44.6255905273419 4.0
endloop
endfacet
facet normal -1.38782481006548e-017 1.60656755232325e-017 -1.0
outer loop
vertex 52.2501943657319 26.6255905273419 4.0
vertex 54.1501943657319 46.2755905273419 4.0
vertex 54.1501943657319 24.8755905273419 4.0
endloop
endfacet
facet normal -1.38782481006548e-017 1.60656755232325e-017 -1.0
outer loop
vertex 54.1501943657319 24.8755905273419 4.0
vertex 54.1501943657319 46.2755905273419 4.0
vertex 54.1501943657319 44.3755905273419 4.0
endloop
endfacet
facet normal -1.38782481006548e-017 1.60656755232325e-017 -1.0
outer loop
vertex 54.1501943657319 24.8755905273419 4.0
vertex 54.1501943657319 44.3755905273419 4.0
vertex 54.1501943657319 26.8755905273419 4.0
endloop
endfacet
facet normal -1.38782481006548e-017 1.60656755232325e-017 -1.0
outer loop
vertex 54.1501943657319 24.8755905273419 4.0
vertex 54.1501943657319 26.8755905273419 4.0
vertex 73.3501943657319 26.8755905273419 4.0
endloop
endfacet
facet normal -1.38782481006548e-017 1.60656755232325e-017 -1.0
outer loop
vertex 54.1501943657319 24.8755905273419 4.0
vertex 73.3501943657319 26.8755905273419 4.0
vertex 73.3501943657319 24.8755905273419 4.0
endloop
endfacet
facet normal 0.0 1.0 0.0
outer loop
vertex 55.6501943657319 28.1255905273419 3.5
vertex 73.3501943657319 28.1255905273419 4.0
vertex 73.3501943657319 28.1255905273419 3.5
endloop
endfacet
facet normal 0.0 1.0 0.0
outer loop
vertex 73.3501943657319 28.1255905273419 4.0
vertex 55.6501943657319 28.1255905273419 3.5
vertex 55.6501943657319 28.1255905273419 4.2
endloop
endfacet
facet normal 0.0 1.0 0.0
outer loop
vertex 73.3501943657319 28.1255905273419 4.0
vertex 55.6501943657319 28.1255905273419 4.2
vertex 75.2501943657319 28.1255905273419 4.0
endloop
endfacet
facet normal 0.0 1.0 0.0
outer loop
vertex 75.2501943657319 28.1255905273419 4.0
vertex 55.6501943657319 28.1255905273419 4.2
vertex 70.3501943657319 28.1255905273419 4.2
endloop
endfacet
facet normal 0.0 1.0 0.0
outer loop
vertex 75.2501943657319 28.1255905273419 4.0
vertex 70.3501943657319 28.1255905273419 4.2
vertex 75.2501943657319 28.1255905273419 5.49999999999999
endloop
endfacet
facet normal 0.0 1.0 0.0
outer loop
vertex 75.2501943657319 28.1255905273419 5.49999999999999
vertex 70.3501943657319 28.1255905273419 4.2
vertex 70.3501943657319 28.1255905273419 5.5
endloop
endfacet
facet normal 0.25881904510252 0.965925826289069 -1.09919033372649e-017
outer loop
vertex 69.9619657980782 28.1767017879083 5.5
vertex 70.3501943657319 28.1255905273419 4.2
vertex 69.9619657980782 28.1767017879083 4.2
endloop
endfacet
facet normal 0.130526192220046 0.991444861373811 5.193949677442e-018
outer loop
vertex 70.3501943657319 28.1255905273419 4.2
vertex 69.9619657980782 28.1767017879083 5.5
vertex 70.3501943657319 28.1255905273419 5.5
endloop
endfacet
facet normal 0.5 0.866025403784439 -4.25256594002061e-017
outer loop
vertex 69.6001943657319 28.3265524216652 5.5
vertex 69.9619657980782 28.1767017879083 4.2
vertex 69.6001943657319 28.3265524216652 4.2
endloop
endfacet
facet normal 0.25881904510252 0.965925826289069 -1.09919033372649e-017
outer loop
vertex 69.9619657980782 28.1767017879083 4.2
vertex 69.6001943657319 28.3265524216652 5.5
vertex 69.9619657980782 28.1767017879083 5.5
endloop
endfacet
facet normal 0.707106781186553 0.707106781186542 -7.1161362051999e-017
outer loop
vertex 69.2895341939521 28.5649303555621 5.5
vertex 69.6001943657319 28.3265524216652 4.2
vertex 69.2895341939521 28.5649303555621 4.2
endloop
endfacet
facet normal 0.5 0.866025403784439 -4.25256594002061e-017
outer loop
vertex 69.6001943657319 28.3265524216652 4.2
vertex 69.2895341939521 28.5649303555621 5.5
vertex 69.6001943657319 28.3265524216652 5.5
endloop
endfacet
facet normal 0.866025403784439 0.499999999999999 -9.49475354796578e-017
outer loop
vertex 69.0511562600553 28.8755905273419 4.2
vertex 69.2895341939521 28.5649303555621 5.5
vertex 69.2895341939521 28.5649303555621 4.2
endloop
endfacet
facet normal 0.707106781186553 0.707106781186542 -7.1161362051999e-017
outer loop
vertex 69.2895341939521 28.5649303555621 5.5
vertex 69.0511562600553 28.8755905273419 4.2
vertex 69.0511562600553 28.8755905273419 5.5
endloop
endfacet
facet normal 0.965925826289067 0.258819045102526 -5.15991691787123e-017
outer loop
vertex 68.9013056262983 29.2373619596881 4.2
vertex 69.0511562600553 28.8755905273419 5.5
vertex 69.0511562600553 28.8755905273419 4.2
endloop
endfacet
facet normal 0.866025403784439 0.499999999999999 -9.49475354796578e-017
outer loop
vertex 69.0511562600553 28.8755905273419 5.5
vertex 68.9013056262983 29.2373619596881 4.2
vertex 68.9013056262983 29.2373619596881 5.5
endloop
endfacet
facet normal 0.991444861373811 0.130526192220046 2.18390770580806e-018
outer loop
vertex 68.8501943657319 29.6255905273419 4.2
vertex 68.9013056262983 29.2373619596881 5.5
vertex 68.9013056262983 29.2373619596881 4.2
endloop
endfacet
facet normal 0.965925826289067 0.258819045102526 -5.15991691787125e-017
outer loop
vertex 68.9013056262983 29.2373619596881 5.5
vertex 68.8501943657319 29.6255905273419 4.2
vertex 68.8501943657319 29.6255905273419 5.5
endloop
endfacet
facet normal 0.965925826289071 -0.258819045102512 -6.15996689321715e-017
outer loop
vertex 68.9013056262983 41.7638190949957 4.2
vertex 68.8501943657319 41.3755905273419 5.5
vertex 68.8501943657319 41.3755905273419 4.2
endloop
endfacet
facet normal 0.991444861373811 -0.130526192220044 -1.35060601391203e-018
outer loop
vertex 68.8501943657319 41.3755905273419 5.5
vertex 68.9013056262983 41.7638190949957 4.2
vertex 68.9013056262983 41.7638190949957 5.5
endloop
endfacet
facet normal 0.86602540378444 -0.499999999999998 -1.16238468252789e-016
outer loop
vertex 69.0511562600553 42.1255905273419 4.2
vertex 68.9013056262983 41.7638190949957 5.5
vertex 68.9013056262983 41.7638190949957 4.2
endloop
endfacet
facet normal 0.965925826289071 -0.258819045102512 -6.15996689321715e-017
outer loop
vertex 68.9013056262983 41.7638190949957 5.5
vertex 69.0511562600553 42.1255905273419 4.2
vertex 69.0511562600553 42.1255905273419 5.5
endloop
endfacet
facet normal 0.707106781186544 -0.707106781186551 -1.01271287935334e-016
outer loop
vertex 69.2895341939521 42.4362506991217 4.2
vertex 69.0511562600553 42.1255905273419 5.5
vertex 69.0511562600553 42.1255905273419 4.2
endloop
endfacet
facet normal 0.86602540378444 -0.499999999999998 -1.16238468252789e-016
outer loop
vertex 69.0511562600553 42.1255905273419 5.5
vertex 69.2895341939521 42.4362506991217 4.2
vertex 69.2895341939521 42.4362506991217 5.5
endloop
endfacet
facet normal 0.499999999999994 -0.866025403784442 -7.94026367038027e-017
outer loop
vertex 69.6001943657319 42.6746286330185 5.5
vertex 69.2895341939521 42.4362506991217 4.2
vertex 69.6001943657319 42.6746286330185 4.2
endloop
endfacet
facet normal 0.707106781186544 -0.707106781186551 -1.01271287935334e-016
outer loop
vertex 69.2895341939521 42.4362506991217 4.2
vertex 69.6001943657319 42.6746286330185 5.5
vertex 69.2895341939521 42.4362506991217 5.5
endloop
endfacet
facet normal 0.25881904510252 -0.965925826289069 -5.21228269999692e-017
outer loop
vertex 69.9619657980782 42.8244792667755 5.5
vertex 69.6001943657319 42.6746286330185 4.2
vertex 69.9619657980782 42.8244792667755 4.2
endloop
endfacet
facet normal 0.499999999999994 -0.866025403784442 -7.94026367038027e-017
outer loop
vertex 69.6001943657319 42.6746286330185 4.2
vertex 69.9619657980782 42.8244792667755 5.5
vertex 69.6001943657319 42.6746286330185 5.5
endloop
endfacet
facet normal 0.13052619222006 -0.991444861373809 -3.70236221061129e-017
outer loop
vertex 70.3501943657319 42.8755905273419 5.5
vertex 69.9619657980782 42.8244792667755 4.2
vertex 70.3501943657319 42.8755905273419 4.2
endloop
endfacet
facet normal 0.25881904510252 -0.965925826289069 -5.21228269999692e-017
outer loop
vertex 69.9619657980782 42.8244792667755 4.2
vertex 70.3501943657319 42.8755905273419 5.5
vertex 69.9619657980782 42.8244792667755 5.5
endloop
endfacet
facet normal 1.0 0.0 0.0
outer loop
vertex 68.8501943657319 41.3755905273419 4.2
vertex 68.8501943657319 29.6255905273419 5.5
vertex 68.8501943657319 29.6255905273419 4.2
endloop
endfacet
facet normal 1.0 0.0 0.0
outer loop
vertex 68.8501943657319 29.6255905273419 5.5
vertex 68.8501943657319 41.3755905273419 4.2
vertex 68.8501943657319 41.3755905273419 5.5
endloop
endfacet
facet normal 1.0 0.0 0.0
outer loop
vertex 75.2501943657319 44.6255905273419 4.0
vertex 75.2501943657319 42.8755905273419 5.5
vertex 75.2501943657319 42.8755905273419 4.0
endloop
endfacet
facet normal 1.0 0.0 0.0
outer loop
vertex 75.2501943657319 42.8755905273419 5.5
vertex 75.2501943657319 44.6255905273419 4.0
vertex 75.2501943657319 44.6255905273419 5.49999999999999
endloop
endfacet
facet normal 1.0 0.0 0.0
outer loop
vertex 75.2501943657319 28.1255905273419 4.0
vertex 75.2501943657319 26.6255905273419 5.5
vertex 75.2501943657319 26.6255905273419 4.0
endloop
endfacet
facet normal 1.0 0.0 0.0
outer loop
vertex 75.2501943657319 26.6255905273419 5.5
vertex 75.2501943657319 28.1255905273419 4.0
vertex 75.2501943657319 28.1255905273419 5.49999999999999
endloop
endfacet
facet normal -0.0 -0.0 -1.0
outer loop
vertex 62.5294116783492 35.8412011541764 1.7
vertex 62.6231411797027 34.8101766392881 1.7
vertex 62.5084079527965 35.3195190352568 1.7
endloop
endfacet
facet normal -0.0 -0.0 -1.0
outer loop
vertex 62.6231411797027 34.8101766392881 1.7
vertex 62.5294116783492 35.8412011541764 1.7
vertex 62.6847209871747 36.3396712217628 1.7
endloop
endfacet
facet normal -0.0 -0.0 -1.0
outer loop
vertex 62.6231411797027 34.8101766392881 1.7
vertex 62.6847209871747 36.3396712217628 1.7
vertex 62.8657924792597 34.3478848088274 1.7
endloop
endfacet
facet normal -0.0 -0.0 -1.0
outer loop
vertex 62.8657924792597 34.3478848088274 1.7
vertex 62.6847209871747 36.3396712217628 1.7
vertex 62.9637518065372 36.7809593266708 1.7
endloop
endfacet
facet normal -0.0 -0.0 -1.0
outer loop
vertex 62.8657924792597 34.3478848088274 1.7
vertex 62.9637518065372 36.7809593266708 1.7
vertex 63.219825566403 33.9641479681471 1.7
endloop
endfacet
facet normal -0.0 -0.0 -1.0
outer loop
vertex 63.219825566403 33.9641479681471 1.7
vertex 62.9637518065372 36.7809593266708 1.7
vertex 63.3474886472174 37.1349924138141 1.7
endloop
endfacet
facet normal -0.0 -0.0 -1.0
outer loop
vertex 63.219825566403 33.9641479681471 1.7
vertex 63.3474886472174 37.1349924138141 1.7
vertex 63.661113671311 33.6851171487846 1.7
endloop
endfacet
facet normal -0.0 -0.0 -1.0
outer loop
vertex 63.661113671311 33.6851171487846 1.7
vertex 63.3474886472174 37.1349924138141 1.7
vertex 63.8097804776782 37.3776437133711 1.7
endloop
endfacet
facet normal -0.0 -0.0 -1.0
outer loop
vertex 63.661113671311 33.6851171487846 1.7
vertex 63.8097804776782 37.3776437133711 1.7
vertex 64.1595837388974 33.5298078399592 1.7
endloop
endfacet
facet normal -0.0 -0.0 -1.0
outer loop
vertex 64.1595837388974 33.5298078399592 1.7
vertex 63.8097804776782 37.3776437133711 1.7
vertex 64.3191228736469 37.4923769402773 1.7
endloop
endfacet
facet normal -0.0 -0.0 -1.0
outer loop
vertex 64.1595837388974 33.5298078399592 1.7
vertex 64.3191228736469 37.4923769402773 1.7
vertex 64.681265857817 33.5088041144065 1.7
endloop
endfacet
facet normal -0.0 -0.0 -1.0
outer loop
vertex 64.681265857817 33.5088041144065 1.7
vertex 64.3191228736469 37.4923769402773 1.7
vertex 64.8408049925664 37.4713732147246 1.7
endloop
endfacet
facet normal -0.0 -0.0 -1.0
outer loop
vertex 64.681265857817 33.5088041144065 1.7
vertex 64.8408049925664 37.4713732147246 1.7
vertex 65.1906082537857 33.6235373413126 1.7
endloop
endfacet
facet normal -0.0 -0.0 -1.0
outer loop
vertex 65.1906082537857 33.6235373413126 1.7
vertex 64.8408049925664 37.4713732147246 1.7
vertex 65.3392750601528 37.3160639058991 1.7
endloop
endfacet
facet normal -0.0 -0.0 -1.0
outer loop
vertex 65.1906082537857 33.6235373413126 1.7
vertex 65.3392750601528 37.3160639058991 1.7
vertex 65.6529000842464 33.8661886408696 1.7
endloop
endfacet
facet normal -0.0 -0.0 -1.0
outer loop
vertex 65.6529000842464 33.8661886408696 1.7
vertex 65.3392750601528 37.3160639058991 1.7
vertex 65.7805631650609 37.0370330865366 1.7
endloop
endfacet
facet normal -0.0 -0.0 -1.0
outer loop
vertex 65.6529000842464 33.8661886408696 1.7
vertex 65.7805631650609 37.0370330865366 1.7
vertex 66.0366369249267 34.2202217280129 1.7
endloop
endfacet
facet normal -0.0 -0.0 -1.0
outer loop
vertex 66.0366369249267 34.2202217280129 1.7
vertex 65.7805631650609 37.0370330865366 1.7
vertex 66.1345962522042 36.6532962458564 1.7
endloop
endfacet
facet normal -0.0 -0.0 -1.0
outer loop
vertex 66.0366369249267 34.2202217280129 1.7
vertex 66.1345962522042 36.6532962458564 1.7
vertex 66.3156677442892 34.661509832921 1.7
endloop
endfacet
facet normal -0.0 -0.0 -1.0
outer loop
vertex 66.3156677442892 34.661509832921 1.7
vertex 66.1345962522042 36.6532962458564 1.7
vertex 66.3772475517612 36.1910044153956 1.7
endloop
endfacet
facet normal -0.0 -0.0 -1.0
outer loop
vertex 66.3156677442892 34.661509832921 1.7
vertex 66.3772475517612 36.1910044153956 1.7
vertex 66.4709770531146 35.1599799005074 1.7
endloop
endfacet
facet normal -0.0 -0.0 -1.0
outer loop
vertex 66.4709770531146 35.1599799005074 1.7
vertex 66.3772475517612 36.1910044153956 1.7
vertex 66.4919807786673 35.6816620194269 1.7
endloop
endfacet
facet normal -0.768221279597377 0.640184399664479 0.0
outer loop
vertex 62.9637518065372 36.7809593266708 4.2
vertex 63.3474886472174 37.1349924138141 1.7
vertex 62.9637518065372 36.7809593266708 1.7
endloop
endfacet
facet normal -0.576352859257246 0.817200943236116 0.0
outer loop
vertex 63.3474886472174 37.1349924138141 1.7
vertex 62.9637518065372 36.7809593266708 4.2
vertex 63.3474886472174 37.1349924138141 4.2
endloop
endfacet
facet normal -0.768221279597377 0.640184399664479 0.0
outer loop
vertex 62.9637518065372 36.7809593266708 4.2
vertex 62.6847209871747 36.3396712217628 1.7
vertex 62.6847209871747 36.3396712217628 4.2
endloop
endfacet
facet normal -0.907736689278634 0.419540347210449 0.0
outer loop
vertex 62.6847209871747 36.3396712217628 1.7
vertex 62.9637518065372 36.7809593266708 4.2
vertex 62.9637518065372 36.7809593266708 1.7
endloop
endfacet
facet normal -0.907736689278634 0.419540347210449 0.0
outer loop
vertex 62.6847209871747 36.3396712217628 4.2
vertex 62.5294116783492 35.8412011541764 1.7
vertex 62.5294116783492 35.8412011541764 4.2
endloop
endfacet
facet normal -0.985391343691355 0.170305313417247 0.0
outer loop
vertex 62.5294116783492 35.8412011541764 1.7
vertex 62.6847209871747 36.3396712217628 4.2
vertex 62.6847209871747 36.3396712217628 1.7
endloop
endfacet
facet normal -0.985391343691355 0.170305313417247 0.0
outer loop
vertex 62.5294116783492 35.8412011541764 4.2
vertex 62.5084079527965 35.3195190352568 1.7
vertex 62.5084079527965 35.3195190352568 4.2
endloop
endfacet
facet normal -0.995893206467705 -0.0905357460425086 0.0
outer loop
vertex 62.5084079527965 35.3195190352568 1.7
vertex 62.5294116783492 35.8412011541764 4.2
vertex 62.5294116783492 35.8412011541764 1.7
endloop
endfacet
facet normal -0.995893206467705 -0.0905357460425086 0.0
outer loop
vertex 62.5084079527965 35.3195190352568 4.2
vertex 62.6231411797027 34.8101766392881 1.7
vertex 62.6231411797027 34.8101766392881 4.2
endloop
endfacet
facet normal -0.938526593014617 -0.345206944026877 0.0
outer loop
vertex 62.6231411797027 34.8101766392881 1.7
vertex 62.5084079527965 35.3195190352568 4.2
vertex 62.5084079527965 35.3195190352568 1.7
endloop
endfacet
facet normal -0.938526593014617 -0.345206944026877 0.0
outer loop
vertex 62.6231411797027 34.8101766392881 4.2
vertex 62.8657924792597 34.3478848088274 1.7
vertex 62.8657924792597 34.3478848088274 4.2
endloop
endfacet
facet normal -0.817200943236108 -0.576352859257256 0.0
outer loop
vertex 62.8657924792597 34.3478848088274 1.7
vertex 62.6231411797027 34.8101766392881 4.2
vertex 62.6231411797027 34.8101766392881 1.7
endloop
endfacet
facet normal -0.817200943236108 -0.576352859257256 0.0
outer loop
vertex 62.8657924792597 34.3478848088274 4.2
vertex 63.219825566403 33.9641479681471 1.7
vertex 63.219825566403 33.9641479681471 4.2
endloop
endfacet
facet normal -0.640184399664481 -0.768221279597375 0.0
outer loop
vertex 63.219825566403 33.9641479681471 1.7
vertex 62.8657924792597 34.3478848088274 4.2
vertex 62.8657924792597 34.3478848088274 1.7
endloop
endfacet
facet normal -0.419540347210462 -0.907736689278628 0.0
outer loop
vertex 63.661113671311 33.6851171487846 4.2
vertex 63.219825566403 33.9641479681471 1.7
vertex 63.661113671311 33.6851171487846 1.7
endloop
endfacet
facet normal -0.640184399664481 -0.768221279597375 0.0
outer loop
vertex 63.219825566403 33.9641479681471 1.7
vertex 63.661113671311 33.6851171487846 4.2
vertex 63.219825566403 33.9641479681471 4.2
endloop
endfacet
facet normal -0.17030531341724 -0.985391343691356 0.0
outer loop
vertex 64.1595837388974 33.5298078399592 4.2
vertex 63.661113671311 33.6851171487846 1.7
vertex 64.1595837388974 33.5298078399592 1.7
endloop
endfacet
facet normal -0.419540347210462 -0.907736689278628 0.0
outer loop
vertex 63.661113671311 33.6851171487846 1.7
vertex 64.1595837388974 33.5298078399592 4.2
vertex 63.661113671311 33.6851171487846 4.2
endloop
endfacet
facet normal 0.0905357460425194 -0.995893206467704 0.0
outer loop
vertex 64.681265857817 33.5088041144065 4.2
vertex 64.1595837388974 33.5298078399592 1.7
vertex 64.681265857817 33.5088041144065 1.7
endloop
endfacet
facet normal -0.17030531341724 -0.985391343691356 0.0
outer loop
vertex 64.1595837388974 33.5298078399592 1.7
vertex 64.681265857817 33.5088041144065 4.2
vertex 64.1595837388974 33.5298078399592 4.2
endloop
endfacet
facet normal 0.345206944026872 -0.938526593014619 0.0
outer loop
vertex 65.1906082537857 33.6235373413126 4.2
vertex 64.681265857817 33.5088041144065 1.7
vertex 65.1906082537857 33.6235373413126 1.7
endloop
endfacet
facet normal 0.0905357460425194 -0.995893206467704 0.0
outer loop
vertex 64.681265857817 33.5088041144065 1.7
vertex 65.1906082537857 33.6235373413126 4.2
vertex 64.681265857817 33.5088041144065 4.2
endloop
endfacet
facet normal 0.576352859257246 -0.817200943236116 0.0
outer loop
vertex 65.6529000842464 33.8661886408696 4.2
vertex 65.1906082537857 33.6235373413126 1.7
vertex 65.6529000842464 33.8661886408696 1.7
endloop
endfacet
facet normal 0.345206944026872 -0.938526593014619 0.0
outer loop
vertex 65.1906082537857 33.6235373413126 1.7
vertex 65.6529000842464 33.8661886408696 4.2
vertex 65.1906082537857 33.6235373413126 4.2
endloop
endfacet
facet normal 0.768221279597377 -0.640184399664479 0.0
outer loop
vertex 66.0366369249267 34.2202217280129 4.2
vertex 65.6529000842464 33.8661886408696 1.7
vertex 66.0366369249267 34.2202217280129 1.7
endloop
endfacet
facet normal 0.576352859257246 -0.817200943236116 0.0
outer loop
vertex 65.6529000842464 33.8661886408696 1.7
vertex 66.0366369249267 34.2202217280129 4.2
vertex 65.6529000842464 33.8661886408696 4.2
endloop
endfacet
facet normal 0.907736689278634 -0.419540347210449 0.0
outer loop
vertex 66.3156677442892 34.661509832921 1.7
vertex 66.0366369249267 34.2202217280129 4.2
vertex 66.0366369249267 34.2202217280129 1.7
endloop
endfacet
facet normal 0.768221279597377 -0.640184399664479 0.0
outer loop
vertex 66.0366369249267 34.2202217280129 4.2
vertex 66.3156677442892 34.661509832921 1.7
vertex 66.3156677442892 34.661509832921 4.2
endloop
endfacet
facet normal 0.985391343691355 -0.170305313417247 0.0
outer loop
vertex 66.4709770531146 35.1599799005074 1.7
vertex 66.3156677442892 34.661509832921 4.2
vertex 66.3156677442892 34.661509832921 1.7
endloop
endfacet
facet normal 0.907736689278634 -0.419540347210449 0.0
outer loop
vertex 66.3156677442892 34.661509832921 4.2
vertex 66.4709770531146 35.1599799005074 1.7
vertex 66.4709770531146 35.1599799005074 4.2
endloop
endfacet
facet normal 0.995893206467705 0.0905357460425086 0.0
outer loop
vertex 66.4919807786673 35.6816620194269 1.7
vertex 66.4709770531146 35.1599799005074 4.2
vertex 66.4709770531146 35.1599799005074 1.7
endloop
endfacet
facet normal 0.985391343691355 -0.170305313417247 0.0
outer loop
vertex 66.4709770531146 35.1599799005074 4.2
vertex 66.4919807786673 35.6816620194269 1.7
vertex 66.4919807786673 35.6816620194269 4.2
endloop
endfacet
facet normal 0.938526593014617 0.345206944026877 0.0
outer loop
vertex 66.3772475517612 36.1910044153956 1.7
vertex 66.4919807786673 35.6816620194269 4.2
vertex 66.4919807786673 35.6816620194269 1.7
endloop
endfacet
facet normal 0.995893206467705 0.0905357460425086 0.0
outer loop
vertex 66.4919807786673 35.6816620194269 4.2
vertex 66.3772475517612 36.1910044153956 1.7
vertex 66.3772475517612 36.1910044153956 4.2
endloop
endfacet
facet normal 0.817200943236108 0.576352859257256 0.0
outer loop
vertex 66.1345962522042 36.6532962458564 1.7
vertex 66.3772475517612 36.1910044153956 4.2
vertex 66.3772475517612 36.1910044153956 1.7
endloop
endfacet
facet normal 0.938526593014617 0.345206944026877 0.0
outer loop
vertex 66.3772475517612 36.1910044153956 4.2
vertex 66.1345962522042 36.6532962458564 1.7
vertex 66.1345962522042 36.6532962458564 4.2
endloop
endfacet
facet normal 0.640184399664481 0.768221279597375 0.0
outer loop
vertex 65.7805631650609 37.0370330865366 1.7
vertex 66.1345962522042 36.6532962458564 4.2
vertex 66.1345962522042 36.6532962458564 1.7
endloop
endfacet
facet normal 0.817200943236108 0.576352859257256 0.0
outer loop
vertex 66.1345962522042 36.6532962458564 4.2
vertex 65.7805631650609 37.0370330865366 1.7
vertex 65.7805631650609 37.0370330865366 4.2
endloop
endfacet
facet normal 0.419540347210462 0.907736689278628 0.0
outer loop
vertex 65.3392750601528 37.3160639058991 4.2
vertex 65.7805631650609 37.0370330865366 1.7
vertex 65.3392750601528 37.3160639058991 1.7
endloop
endfacet
facet normal 0.640184399664481 0.768221279597375 0.0
outer loop
vertex 65.7805631650609 37.0370330865366 1.7
vertex 65.3392750601528 37.3160639058991 4.2
vertex 65.7805631650609 37.0370330865366 4.2
endloop
endfacet
facet normal 0.17030531341724 0.985391343691356 0.0
outer loop
vertex 64.8408049925664 37.4713732147246 4.2
vertex 65.3392750601528 37.3160639058991 1.7
vertex 64.8408049925664 37.4713732147246 1.7
endloop
endfacet
facet normal 0.419540347210462 0.907736689278628 0.0
outer loop
vertex 65.3392750601528 37.3160639058991 1.7
vertex 64.8408049925664 37.4713732147246 4.2
vertex 65.3392750601528 37.3160639058991 4.2
endloop
endfacet
facet normal -0.0905357460425194 0.995893206467704 0.0
outer loop
vertex 64.3191228736469 37.4923769402773 4.2
vertex 64.8408049925664 37.4713732147246 1.7
vertex 64.3191228736469 37.4923769402773 1.7
endloop
endfacet
facet normal 0.17030531341724 0.985391343691356 0.0
outer loop
vertex 64.8408049925664 37.4713732147246 1.7
vertex 64.3191228736469 37.4923769402773 4.2
vertex 64.8408049925664 37.4713732147246 4.2
endloop
endfacet
facet normal -0.345206944026872 0.938526593014619 0.0
outer loop
vertex 63.8097804776782 37.3776437133711 4.2
vertex 64.3191228736469 37.4923769402773 1.7
vertex 63.8097804776782 37.3776437133711 1.7
endloop
endfacet
facet normal -0.0905357460425194 0.995893206467704 0.0
outer loop
vertex 64.3191228736469 37.4923769402773 1.7
vertex 63.8097804776782 37.3776437133711 4.2
vertex 64.3191228736469 37.4923769402773 4.2
endloop
endfacet
facet normal -0.576352859257246 0.817200943236116 0.0
outer loop
vertex 63.3474886472174 37.1349924138141 4.2
vertex 63.8097804776782 37.3776437133711 1.7
vertex 63.3474886472174 37.1349924138141 1.7
endloop
endfacet
facet normal -0.345206944026872 0.938526593014619 0.0
outer loop
vertex 63.8097804776782 37.3776437133711 1.7
vertex 63.3474886472174 37.1349924138141 4.2
vertex 63.8097804776782 37.3776437133711 4.2
endloop
endfacet
facet normal 1.83846393873885e-016 5.56703251461451e-017 1.0
outer loop
vertex 54.1501943657319 24.8755905273419 5.5
vertex 52.2501943657319 44.6255905273419 5.5
vertex 52.2501943657319 26.6255905273419 5.5
endloop
endfacet
facet normal 1.83846393873885e-016 5.56703251461451e-017 1.0
outer loop
vertex 52.2501943657319 44.6255905273419 5.5
vertex 54.1501943657319 24.8755905273419 5.5
vertex 54.1501943657319 46.2755905273419 5.5
endloop
endfacet
facet normal 1.83846393873885e-016 5.56703251461451e-017 1.0
outer loop
vertex 54.1501943657319 46.2755905273419 5.5
vertex 54.1501943657319 24.8755905273419 5.5
vertex 69.2895341939521 28.5649303555621 5.5
endloop
endfacet
facet normal 1.83846393873885e-016 5.56703251461451e-017 1.0
outer loop
vertex 69.2895341939521 28.5649303555621 5.5
vertex 54.1501943657319 24.8755905273419 5.5
vertex 73.3501943657319 24.8755905273419 5.5
endloop
endfacet
facet normal 1.83846393873885e-016 5.56703251461451e-017 1.0
outer loop
vertex 54.1501943657319 46.2755905273419 5.5
vertex 69.2895341939521 28.5649303555621 5.5
vertex 69.0511562600553 28.8755905273419 5.5
endloop
endfacet
facet normal 1.83846393873885e-016 5.56703251461451e-017 1.0
outer loop
vertex 54.1501943657319 46.2755905273419 5.5
vertex 69.0511562600553 28.8755905273419 5.5
vertex 68.9013056262983 29.2373619596881 5.5
endloop
endfacet
facet normal 1.83846393873885e-016 5.56703251461451e-017 1.0
outer loop
vertex 54.1501943657319 46.2755905273419 5.5
vertex 68.9013056262983 29.2373619596881 5.5
vertex 68.8501943657319 29.6255905273419 5.5
endloop
endfacet
facet normal 1.83846393873885e-016 5.56703251461451e-017 1.0
outer loop
vertex 69.2895341939521 28.5649303555621 5.5
vertex 73.3501943657319 24.8755905273419 5.5
vertex 69.6001943657319 28.3265524216652 5.5
endloop
endfacet
facet normal 1.83846393873885e-016 5.56703251461451e-017 1.0
outer loop
vertex 69.6001943657319 28.3265524216652 5.5
vertex 73.3501943657319 24.8755905273419 5.5
vertex 69.9619657980782 28.1767017879083 5.5
endloop
endfacet
facet normal 1.83846393873885e-016 5.56703251461451e-017 1.0
outer loop
vertex 69.9619657980782 28.1767017879083 5.5
vertex 73.3501943657319 24.8755905273419 5.5
vertex 70.3501943657319 28.1255905273419 5.5
endloop
endfacet
facet normal 1.83846393873885e-016 5.56703251461451e-017 1.0
outer loop
vertex 70.3501943657319 28.1255905273419 5.5
vertex 73.3501943657319 24.8755905273419 5.5
vertex 75.2501943657319 28.1255905273419 5.49999999999999
endloop
endfacet
facet normal 1.83846393873885e-016 5.56703251461451e-017 1.0
outer loop
vertex 75.2501943657319 28.1255905273419 5.49999999999999
vertex 73.3501943657319 24.8755905273419 5.5
vertex 75.2501943657319 26.6255905273419 5.5
endloop
endfacet
facet normal 1.83846393873885e-016 5.56703251461451e-017 1.0
outer loop
vertex 54.1501943657319 46.2755905273419 5.5
vertex 69.2895341939521 42.4362506991217 5.5
vertex 73.3501943657319 46.2755905273419 5.49999999999999
endloop
endfacet
facet normal 1.83846393873885e-016 5.56703251461451e-017 1.0
outer loop
vertex 69.2895341939521 42.4362506991217 5.5
vertex 54.1501943657319 46.2755905273419 5.5
vertex 69.0511562600553 42.1255905273419 5.5
endloop
endfacet
facet normal 1.83846393873885e-016 5.56703251461451e-017 1.0
outer loop
vertex 69.0511562600553 42.1255905273419 5.5
vertex 54.1501943657319 46.2755905273419 5.5
vertex 68.9013056262983 41.7638190949957 5.5
endloop
endfacet
facet normal 1.83846393873885e-016 5.56703251461451e-017 1.0
outer loop
vertex 68.9013056262983 41.7638190949957 5.5
vertex 54.1501943657319 46.2755905273419 5.5
vertex 68.8501943657319 41.3755905273419 5.5
endloop
endfacet
facet normal 1.83846393873885e-016 5.56703251461451e-017 1.0
outer loop
vertex 68.8501943657319 41.3755905273419 5.5
vertex 54.1501943657319 46.2755905273419 5.5
vertex 68.8501943657319 29.6255905273419 5.5
endloop
endfacet
facet normal 1.83846393873885e-016 5.56703251461451e-017 1.0
outer loop
vertex 73.3501943657319 46.2755905273419 5.49999999999999
vertex 69.2895341939521 42.4362506991217 5.5
vertex 69.6001943657319 42.6746286330185 5.5
endloop
endfacet
facet normal 1.83846393873885e-016 5.56703251461451e-017 1.0
outer loop
vertex 73.3501943657319 46.2755905273419 5.49999999999999
vertex 69.6001943657319 42.6746286330185 5.5
vertex 69.9619657980782 42.8244792667755 5.5
endloop
endfacet
facet normal 1.83846393873885e-016 5.56703251461451e-017 1.0
outer loop
vertex 73.3501943657319 46.2755905273419 5.49999999999999
vertex 69.9619657980782 42.8244792667755 5.5
vertex 70.3501943657319 42.8755905273419 5.5
endloop
endfacet
facet normal 1.83846393873885e-016 5.56703251461451e-017 1.0
outer loop
vertex 73.3501943657319 46.2755905273419 5.49999999999999
vertex 70.3501943657319 42.8755905273419 5.5
vertex 75.2501943657319 42.8755905273419 5.5
endloop
endfacet
facet normal 1.83846393873885e-016 5.56703251461451e-017 1.0
outer loop
vertex 73.3501943657319 46.2755905273419 5.49999999999999
vertex 75.2501943657319 42.8755905273419 5.5
vertex 75.2501943657319 44.6255905273419 5.49999999999999
endloop
endfacet
endsolid BME680_002
