solid SCD30_105
facet normal 1.0 0.0 0.0
outer loop
vertex 27.0 37.5000000000011 1.49999999995961
vertex 27.0 21.9999999999977 -4.62404003975791e-012
vertex 27.0 37.4999999999977 -4.03893224421026e-011
endloop
endfacet
facet normal 1.0 0.0 0.0
outer loop
vertex 27.0 21.9999999999977 -4.62404003975791e-012
vertex 27.0 37.5000000000011 1.49999999995961
vertex 27.0 22.0000000000012 1.49999999999537
endloop
endfacet
facet normal 0.0 -1.0 2.30721691751867e-012
outer loop
vertex 1.9 -2.27289298493361e-012 4.61314791921907e-011
vertex 22.0 1.14490639191445e-012 1.50000000004613
vertex 1.9 1.14490639191445e-012 1.50000000004613
endloop
endfacet
facet normal 0.0 -1.0 2.30721691751867e-012
outer loop
vertex 22.0 1.14490639191445e-012 1.50000000004613
vertex 1.9 -2.27289298493361e-012 4.61314791921907e-011
vertex 22.0 -2.27289298493361e-012 4.61357091419146e-011
endloop
endfacet
facet normal -1.0 8.057047092994e-017 -1.85893553582004e-028
outer loop
vertex 0.0 2.49999999999772 4.03635902479493e-011
vertex 2.8199664825479e-015 37.5000000000011 1.49999999995961
vertex 2.8199664825479e-015 37.4999999999977 -4.03893224421026e-011
endloop
endfacet
facet normal -1.0 8.057047092994e-017 -1.85893553582004e-028
outer loop
vertex 2.8199664825479e-015 37.5000000000011 1.49999999995961
vertex 0.0 2.49999999999772 4.03635902479493e-011
vertex 0.0 2.50000000000114 1.50000000004036
endloop
endfacet
facet normal 0.0 1.0 -2.30721691751867e-012
outer loop
vertex 25.1 39.9999999999977 -4.6157211386344e-011
vertex 1.9 40.0000000000011 1.49999999995384
vertex 25.1 40.0000000000011 1.49999999995384
endloop
endfacet
facet normal 0.0 1.0 -2.30721691751867e-012
outer loop
vertex 1.9 40.0000000000011 1.49999999995384
vertex 25.1 39.9999999999977 -4.6157211386344e-011
vertex 1.9 39.9999999999977 -4.6157211386344e-011
endloop
endfacet
facet normal 1.96770910121663e-015 1.0 -2.32365238161947e-012
outer loop
vertex 3.4 37.5000000000011 1.49999999995961
vertex 1.9 37.5000000000023 1.99999999995961
vertex 3.4 37.5000000000023 1.99999999995961
endloop
endfacet
facet normal 1.96770910121663e-015 1.0 -2.32365238161947e-012
outer loop
vertex 1.9 37.5000000000023 1.99999999995961
vertex 3.4 37.5000000000011 1.49999999995961
vertex 1.9 37.5000000000011 1.49999999995961
endloop
endfacet
facet normal -1.0 -0.0 0.0
outer loop
vertex 1.9 37.5000000000011 1.49999999995961
vertex 1.9 2.50000000000234 2.00000000004036
vertex 1.9 37.5000000000023 1.99999999995961
endloop
endfacet
facet normal -1.0 -0.0 0.0
outer loop
vertex 1.9 2.50000000000234 2.00000000004036
vertex 1.9 37.5000000000011 1.49999999995961
vertex 1.9 2.50000000000114 1.50000000004036
endloop
endfacet
facet normal 0.0 -1.0 2.30721691751867e-012
outer loop
vertex 1.9 2.50000000000114 1.50000000004036
vertex 22.0 2.50000000000234 2.00000000004036
vertex 1.9 2.50000000000234 2.00000000004036
endloop
endfacet
facet normal 0.0 -1.0 2.30721691751867e-012
outer loop
vertex 22.0 2.50000000000234 2.00000000004036
vertex 1.9 2.50000000000114 1.50000000004036
vertex 22.0 2.50000000000114 1.50000000004036
endloop
endfacet
facet normal -1.0 -1.95443221558861e-016 1.6752276133952e-015
outer loop
vertex 23.6 22.0000000000007 1.29999999999537
vertex 23.6 36.0000000000012 1.49999999996307
vertex 23.6 36.0000000000007 1.29999999996307
endloop
endfacet
facet normal -1.0 -1.95443221558861e-016 1.6752276133952e-015
outer loop
vertex 23.6 36.0000000000012 1.49999999996307
vertex 23.6 22.0000000000007 1.29999999999537
vertex 23.6 36.0000000000023 1.99999999996307
endloop
endfacet
facet normal -1.0 -1.95443221558861e-016 1.6752276133952e-015
outer loop
vertex 23.6 36.0000000000023 1.99999999996307
vertex 23.6 22.0000000000007 1.29999999999537
vertex 23.6 22.0000000000023 1.99999999999537
endloop
endfacet
facet normal -0.000124868865772405 -0.99770282345838 -0.0677426045479678
outer loop
vertex 6.18264479736503 36.006661439753 1.30044384643743
vertex 14.9106001905718 36.0000561835995 1.49999999996307
vertex 6.21060019057182 36.0000561835995 1.49999999996307
endloop
endfacet
facet normal -0.000124868865772405 -0.99770282345838 -0.0677426045479678
outer loop
vertex 14.9106001905718 36.0000561835995 1.49999999996307
vertex 6.18264479736503 36.006661439753 1.30044384643743
vertex 6.43752034418454 36.0193167339324 1.30046430286397
endloop
endfacet
facet normal -0.000124868865772405 -0.99770282345838 -0.0677426045479678
outer loop
vertex 14.9106001905718 36.0000561835995 1.49999999996307
vertex 6.43752034418454 36.0193167339324 1.30046430286397
vertex 14.667026314756 36.0171172023355 1.30049611292493
endloop
endfacet
facet normal -0.000124868865772405 -0.99770282345838 -0.0677426045479678
outer loop
vertex 6.43752034418454 36.0193167339324 1.30046430286397
vertex 6.18264479736503 36.006661439753 1.30044384643743
vertex 6.4029831171218 36.0170455736705 1.30022474449849
endloop
endfacet
facet normal -0.000124868865772405 -0.99770282345838 -0.0677426045479678
outer loop
vertex 14.667026314756 36.0171172023355 1.30049611292493
vertex 14.9091931049719 36.006661439753 1.30044384643743
vertex 14.9106001905718 36.0000561835995 1.49999999996307
endloop
endfacet
facet normal -0.000124868865772405 -0.99770282345838 -0.0677426045479678
outer loop
vertex 14.9091931049719 36.006661439753 1.30044384643743
vertex 14.667026314756 36.0171172023355 1.30049611292493
vertex 14.7015011498434 36.0148483233761 1.30029879700824
endloop
endfacet
facet normal 1.0 -1.42510682383045e-017 2.79204602232497e-016
outer loop
vertex 3.4 4.00000000000233 2.0000000000369
vertex 3.4 36.0000000000012 1.49999999996307
vertex 3.4 36.0000000000023 1.99999999996307
endloop
endfacet
facet normal 1.0 -1.42510682383045e-017 2.79204602232497e-016
outer loop
vertex 3.4 36.0000000000012 1.49999999996307
vertex 3.4 4.00000000000072 1.3000000000369
vertex 3.4 36.0000000000007 1.29999999996307
endloop
endfacet
facet normal 1.0 -1.42510682383045e-017 2.79204602232497e-016
outer loop
vertex 3.4 4.00000000000072 1.3000000000369
vertex 3.4 36.0000000000012 1.49999999996307
vertex 3.4 4.00000000000233 2.0000000000369
endloop
endfacet
facet normal 0.0 1.0 -2.30721691751867e-012
outer loop
vertex 22.0 4.00000000000233 2.0000000000369
vertex 3.4 4.00000000000072 1.3000000000369
vertex 3.4 4.00000000000233 2.0000000000369
endloop
endfacet
facet normal 0.0 1.0 -2.30721691751867e-012
outer loop
vertex 3.4 4.00000000000072 1.3000000000369
vertex 22.0 4.00000000000233 2.0000000000369
vertex 22.0 4.00000000000072 1.3000000000369
endloop
endfacet
facet normal 0.796162194123102 0.605083267533558 -1.3960583513609e-012
outer loop
vertex 25.1 40.0000000000011 1.49999999995384
vertex 27.0 37.4999999999977 -4.03893224421026e-011
vertex 25.1 39.9999999999977 -4.6157211386344e-011
endloop
endfacet
facet normal 0.796162194123102 0.605083267533558 -1.3960583513609e-012
outer loop
vertex 27.0 37.4999999999977 -4.03893224421026e-011
vertex 25.1 40.0000000000011 1.49999999995384
vertex 27.0 37.5000000000011 1.49999999995961
endloop
endfacet
facet normal -0.796162194123103 0.605083267533557 -1.3960583513609e-012
outer loop
vertex 2.8199664825479e-015 37.4999999999977 -4.03893224421026e-011
vertex 1.9 40.0000000000011 1.49999999995384
vertex 1.9 39.9999999999977 -4.6157211386344e-011
endloop
endfacet
facet normal -0.796162194123103 0.605083267533557 -1.3960583513609e-012
outer loop
vertex 1.9 40.0000000000011 1.49999999995384
vertex 2.8199664825479e-015 37.4999999999977 -4.03893224421026e-011
vertex 2.8199664825479e-015 37.5000000000011 1.49999999995961
endloop
endfacet
facet normal -0.796162194123102 -0.605083267533559 1.3960583513609e-012
outer loop
vertex 1.9 -2.27289298493361e-012 4.61314791921907e-011
vertex 0.0 2.50000000000114 1.50000000004036
vertex 0.0 2.49999999999772 4.03635902479493e-011
endloop
endfacet
facet normal -0.796162194123102 -0.605083267533559 1.3960583513609e-012
outer loop
vertex 0.0 2.50000000000114 1.50000000004036
vertex 1.9 -2.27289298493361e-012 4.61314791921907e-011
vertex 1.9 1.14490639191445e-012 1.50000000004613
endloop
endfacet
facet normal 0.0 -1.0 2.30721691751867e-012
outer loop
vertex 22.0 21.9999999999977 -4.62509752718887e-012
vertex 23.6 22.0000000000007 1.29999999999537
vertex 22.0 22.0000000000007 1.29999999999537
endloop
endfacet
facet normal 0.0 -1.0 2.30721691751867e-012
outer loop
vertex 23.6 22.0000000000007 1.29999999999537
vertex 22.0 21.9999999999977 -4.62509752718887e-012
vertex 27.0 21.9999999999977 -4.62404003975791e-012
endloop
endfacet
facet normal 0.0 -1.0 2.30721691751867e-012
outer loop
vertex 23.6 22.0000000000023 1.99999999999537
vertex 25.1 22.0000000000012 1.49999999999537
vertex 25.1 22.0000000000023 1.99999999999537
endloop
endfacet
facet normal 0.0 -1.0 2.30721691751867e-012
outer loop
vertex 25.1 22.0000000000012 1.49999999999537
vertex 23.6 22.0000000000023 1.99999999999537
vertex 23.6 22.0000000000007 1.29999999999537
endloop
endfacet
facet normal 0.0 -1.0 2.30721691751867e-012
outer loop
vertex 25.1 22.0000000000012 1.49999999999537
vertex 23.6 22.0000000000007 1.29999999999537
vertex 27.0 22.0000000000012 1.49999999999537
endloop
endfacet
facet normal 0.0 -1.0 2.30721691751867e-012
outer loop
vertex 27.0 22.0000000000012 1.49999999999537
vertex 23.6 22.0000000000007 1.29999999999537
vertex 27.0 21.9999999999977 -4.62404003975791e-012
endloop
endfacet
facet normal 6.72176266736443e-006 -9.94269055933369e-006 0.999999999927981
outer loop
vertex 3.4 4.00000000000072 1.3000000000369
vertex 7.0 6.00000000000073 1.30005295627572
vertex 3.4 36.0000000000007 1.29999999996307
endloop
endfacet
facet normal 6.72176266736443e-006 -9.94269055933369e-006 0.999999999927981
outer loop
vertex 7.0 6.00000000000073 1.30005295627572
vertex 3.4 4.00000000000072 1.3000000000369
vertex 22.0 4.00000000000072 1.3000000000369
endloop
endfacet
facet normal 6.72176266736443e-006 -9.94269055933369e-006 0.999999999927981
outer loop
vertex 3.4 36.0000000000007 1.29999999996307
vertex 7.0 6.00000000000073 1.30005295627572
vertex 5.95375269802953 36.0168433312428 1.30046320093973
endloop
endfacet
facet normal 6.72176266736443e-006 -9.94269055933369e-006 0.999999999927981
outer loop
vertex 5.95375269802953 36.0168433312428 1.30046320093973
vertex 7.0 6.00000000000073 1.30005295627572
vertex 5.98820187035172 36.0146152283648 1.30026193775007
endloop
endfacet
facet normal 6.72176266736443e-006 -9.94269055933369e-006 0.999999999927981
outer loop
vertex 5.98820187035172 36.0146152283648 1.30026193775007
vertex 7.0 6.00000000000073 1.30005295627572
vertex 6.18264479736503 36.006661439753 1.30044384643743
endloop
endfacet
facet normal 6.72176266736443e-006 -9.94269055933369e-006 0.999999999927981
outer loop
vertex 6.18264479736503 36.006661439753 1.30044384643743
vertex 7.0 6.00000000000073 1.30005295627572
vertex 6.4029831171218 36.0170455736705 1.30022474449849
endloop
endfacet
facet normal 6.72176266736443e-006 -9.94269055933369e-006 0.999999999927981
outer loop
vertex 6.4029831171218 36.0170455736705 1.30022474449849
vertex 7.0 6.00000000000073 1.30005295627572
vertex 6.43752034418454 36.0193167339324 1.30046430286397
endloop
endfacet
facet normal 6.72176266736443e-006 -9.94269055933369e-006 0.999999999927981
outer loop
vertex 7.0 6.00000000000073 1.30005295627572
vertex 22.0 4.00000000000072 1.3000000000369
vertex 15.0 6.00000000000073 1.30005295627572
endloop
endfacet
facet normal 6.72176266736443e-006 -9.94269055933369e-006 0.999999999927981
outer loop
vertex 15.0 6.00000000000073 1.30005295627572
vertex 22.0 4.00000000000072 1.3000000000369
vertex 15.0 29.0000000000008 1.30005295622265
endloop
endfacet
facet normal 6.72176266736443e-006 -9.94269055933369e-006 0.999999999927981
outer loop
vertex 6.43752034418454 36.0193167339324 1.30046430286397
vertex 7.0 29.0000000000008 1.30005295622265
vertex 14.667026314756 36.0171172023355 1.30049611292493
endloop
endfacet
facet normal 6.72176266736443e-006 -9.94269055933369e-006 0.999999999927981
outer loop
vertex 7.0 29.0000000000008 1.30005295622265
vertex 6.43752034418454 36.0193167339324 1.30046430286397
vertex 7.0 6.00000000000073 1.30005295627572
endloop
endfacet
facet normal 6.72176266736443e-006 -9.94269055933369e-006 0.999999999927981
outer loop
vertex 14.667026314756 36.0171172023355 1.30049611292493
vertex 7.0 29.0000000000008 1.30005295622265
vertex 15.0 29.0000000000008 1.30005295622265
endloop
endfacet
facet normal 6.72176266736443e-006 -9.94269055933369e-006 0.999999999927981
outer loop
vertex 14.667026314756 36.0171172023355 1.30049611292493
vertex 15.0 29.0000000000008 1.30005295622265
vertex 14.7015011498434 36.0148483233761 1.30029879700824
endloop
endfacet
facet normal 6.72176266736443e-006 -9.94269055933369e-006 0.999999999927981
outer loop
vertex 14.7015011498434 36.0148483233761 1.30029879700824
vertex 15.0 29.0000000000008 1.30005295622265
vertex 14.9091931049719 36.006661439753 1.30044384643743
endloop
endfacet
facet normal 6.72176266736443e-006 -9.94269055933369e-006 0.999999999927981
outer loop
vertex 14.9091931049719 36.006661439753 1.30044384643743
vertex 15.0 29.0000000000008 1.30005295622265
vertex 23.6 36.0000000000007 1.29999999996307
endloop
endfacet
facet normal 6.72176266736443e-006 -9.94269055933369e-006 0.999999999927981
outer loop
vertex 23.6 36.0000000000007 1.29999999996307
vertex 15.0 29.0000000000008 1.30005295622265
vertex 22.0 22.0000000000007 1.29999999999537
endloop
endfacet
facet normal 6.72176266736443e-006 -9.94269055933369e-006 0.999999999927981
outer loop
vertex 22.0 22.0000000000007 1.29999999999537
vertex 15.0 29.0000000000008 1.30005295622265
vertex 22.0 4.00000000000072 1.3000000000369
endloop
endfacet
facet normal 6.72176266736443e-006 -9.94269055933369e-006 0.999999999927981
outer loop
vertex 23.6 36.0000000000007 1.29999999996307
vertex 22.0 22.0000000000007 1.29999999999537
vertex 23.6 22.0000000000007 1.29999999999537
endloop
endfacet
facet normal 1.0 0.0 0.0
outer loop
vertex 25.1 22.0000000000023 1.99999999999537
vertex 25.1 37.5000000000011 1.49999999995961
vertex 25.1 37.5000000000023 1.99999999995961
endloop
endfacet
facet normal 1.0 0.0 0.0
outer loop
vertex 25.1 37.5000000000011 1.49999999995961
vertex 25.1 22.0000000000023 1.99999999999537
vertex 25.1 22.0000000000012 1.49999999999537
endloop
endfacet
facet normal 1.0 3.17798177654855e-017 -1.15490164369143e-015
outer loop
vertex 22.0 2.50000000000234 2.00000000004036
vertex 22.0 4.00000000000072 1.3000000000369
vertex 22.0 4.00000000000233 2.0000000000369
endloop
endfacet
facet normal 1.0 3.17798177654855e-017 -1.15490164369143e-015
outer loop
vertex 22.0 22.0000000000007 1.29999999999537
vertex 22.0 -2.27289298493361e-012 4.61357091419146e-011
vertex 22.0 21.9999999999977 -4.62509752718887e-012
endloop
endfacet
facet normal 1.0 3.17798177654855e-017 -1.15490164369143e-015
outer loop
vertex 22.0 -2.27289298493361e-012 4.61357091419146e-011
vertex 22.0 22.0000000000007 1.29999999999537
vertex 22.0 4.00000000000072 1.3000000000369
endloop
endfacet
facet normal 1.0 3.17798177654855e-017 -1.15490164369143e-015
outer loop
vertex 22.0 -2.27289298493361e-012 4.61357091419146e-011
vertex 22.0 4.00000000000072 1.3000000000369
vertex 22.0 2.50000000000114 1.50000000004036
endloop
endfacet
facet normal 1.0 3.17798177654855e-017 -1.15490164369143e-015
outer loop
vertex 22.0 2.50000000000114 1.50000000004036
vertex 22.0 4.00000000000072 1.3000000000369
vertex 22.0 2.50000000000234 2.00000000004036
endloop
endfacet
facet normal 1.0 3.17798177654855e-017 -1.15490164369143e-015
outer loop
vertex 22.0 -2.27289298493361e-012 4.61357091419146e-011
vertex 22.0 2.50000000000114 1.50000000004036
vertex 22.0 1.14490639191445e-012 1.50000000004613
endloop
endfacet
facet normal -2.59876602809575e-028 1.0 -2.32365238161947e-012
outer loop
vertex 25.1 37.5000000000023 1.99999999995961
vertex 23.6 37.5000000000011 1.49999999995961
vertex 23.6 37.5000000000023 1.99999999995961
endloop
endfacet
facet normal -2.59876602809575e-028 1.0 -2.32365238161947e-012
outer loop
vertex 23.6 37.5000000000011 1.49999999995961
vertex 25.1 37.5000000000023 1.99999999995961
vertex 25.1 37.5000000000011 1.49999999995961
endloop
endfacet
facet normal 2.08212868851628e-017 2.30720333169216e-012 1.0
outer loop
vertex 3.4 4.00000000000233 2.0000000000369
vertex 3.4 37.5000000000023 1.99999999995961
vertex 1.9 37.5000000000023 1.99999999995961
endloop
endfacet
facet normal 2.08212868851628e-017 2.30720333169216e-012 1.0
outer loop
vertex 3.4 37.5000000000023 1.99999999995961
vertex 3.4 4.00000000000233 2.0000000000369
vertex 3.4 36.0000000000023 1.99999999996307
endloop
endfacet
facet normal 2.08212868851628e-017 2.30720333169216e-012 1.0
outer loop
vertex 1.9 2.50000000000234 2.00000000004036
vertex 3.4 4.00000000000233 2.0000000000369
vertex 1.9 37.5000000000023 1.99999999995961
endloop
endfacet
facet normal 2.08212868851628e-017 2.30720333169216e-012 1.0
outer loop
vertex 3.4 4.00000000000233 2.0000000000369
vertex 1.9 2.50000000000234 2.00000000004036
vertex 22.0 2.50000000000234 2.00000000004036
endloop
endfacet
facet normal 2.08212868851628e-017 2.30720333169216e-012 1.0
outer loop
vertex 3.4 4.00000000000233 2.0000000000369
vertex 22.0 2.50000000000234 2.00000000004036
vertex 22.0 4.00000000000233 2.0000000000369
endloop
endfacet
facet normal -1.44495153164167e-015 2.30715860019232e-012 1.0
outer loop
vertex 25.1 22.0000000000023 1.99999999999537
vertex 23.6 36.0000000000023 1.99999999996307
vertex 23.6 22.0000000000023 1.99999999999537
endloop
endfacet
facet normal -1.44495153164167e-015 2.30715860019232e-012 1.0
outer loop
vertex 23.6 36.0000000000023 1.99999999996307
vertex 25.1 37.5000000000023 1.99999999995961
vertex 23.6 37.5000000000023 1.99999999995961
endloop
endfacet
facet normal -1.44495153164167e-015 2.30715860019232e-012 1.0
outer loop
vertex 25.1 37.5000000000023 1.99999999995961
vertex 23.6 36.0000000000023 1.99999999996307
vertex 25.1 22.0000000000023 1.99999999999537
endloop
endfacet
facet normal -1.0 -2.81996648252843e-015 8.45989944765024e-015
outer loop
vertex 23.6 37.5000000000011 1.49999999995961
vertex 23.6 36.0000000000023 1.99999999996307
vertex 23.6 37.5000000000023 1.99999999995961
endloop
endfacet
facet normal -1.0 -2.81996648252843e-015 8.45989944765024e-015
outer loop
vertex 23.6 36.0000000000023 1.99999999996307
vertex 23.6 37.5000000000011 1.49999999995961
vertex 23.6 36.0000000000012 1.49999999996307
endloop
endfacet
facet normal 1.0 4.69994413761237e-016 1.40998324127286e-015
outer loop
vertex 3.4 36.0000000000023 1.99999999996307
vertex 3.4 37.5000000000011 1.49999999995961
vertex 3.4 37.5000000000023 1.99999999995961
endloop
endfacet
facet normal 1.0 4.69994413761237e-016 1.40998324127286e-015
outer loop
vertex 3.4 37.5000000000011 1.49999999995961
vertex 3.4 36.0000000000023 1.99999999996307
vertex 3.4 36.0000000000012 1.49999999996307
endloop
endfacet
facet normal 3.7886069435662e-018 2.30720514853422e-012 1.0
outer loop
vertex 22.0 1.14490639191445e-012 1.50000000004613
vertex 1.9 2.50000000000114 1.50000000004036
vertex 1.9 1.14490639191445e-012 1.50000000004613
endloop
endfacet
facet normal 3.7886069435662e-018 2.30720514853422e-012 1.0
outer loop
vertex 1.9 2.50000000000114 1.50000000004036
vertex 22.0 1.14490639191445e-012 1.50000000004613
vertex 22.0 2.50000000000114 1.50000000004036
endloop
endfacet
facet normal 3.7886069435662e-018 2.30720514853422e-012 1.0
outer loop
vertex 23.6 36.0000000000012 1.49999999996307
vertex 15.1495943869712 36.0316495252285 1.499999999963
vertex 14.9106001905718 36.0000561835995 1.49999999996307
endloop
endfacet
facet normal 3.7886069435662e-018 2.30720514853422e-012 1.0
outer loop
vertex 15.1495943869712 36.0316495252285 1.499999999963
vertex 23.6 36.0000000000012 1.49999999996307
vertex 15.3740830648386 36.1195198766405 1.49999999996279
endloop
endfacet
facet normal 3.7886069435662e-018 2.30720514853422e-012 1.0
outer loop
vertex 15.3740830648386 36.1195198766405 1.49999999996279
vertex 23.6 36.0000000000012 1.49999999996307
vertex 15.5710197581993 36.2585605324072 1.49999999996247
endloop
endfacet
facet normal 3.7886069435662e-018 2.30720514853422e-012 1.0
outer loop
vertex 15.5710197581993 36.2585605324072 1.49999999996247
vertex 23.6 36.0000000000012 1.49999999996307
vertex 15.7289592222711 36.4406909550076 1.49999999996205
endloop
endfacet
facet normal 3.7886069435662e-018 2.30720514853422e-012 1.0
outer loop
vertex 15.7289592222711 36.4406909550076 1.49999999996205
vertex 23.6 36.0000000000012 1.49999999996307
vertex 15.8387225894887 36.6553263862974 1.49999999996156
endloop
endfacet
facet normal 3.7886069435662e-018 2.30720514853422e-012 1.0
outer loop
vertex 15.8387225894887 36.6553263862974 1.49999999996156
vertex 23.6 36.0000000000012 1.49999999996307
vertex 15.893930811923 36.889992995178 1.49999999996102
endloop
endfacet
facet normal 3.7886069435662e-018 2.30720514853422e-012 1.0
outer loop
vertex 27.0 22.0000000000012 1.49999999999537
vertex 25.1 37.5000000000011 1.49999999995961
vertex 25.1 22.0000000000012 1.49999999999537
endloop
endfacet
facet normal 3.7886069435662e-018 2.30720514853422e-012 1.0
outer loop
vertex 25.1 37.5000000000011 1.49999999995961
vertex 27.0 22.0000000000012 1.49999999999537
vertex 25.1 40.0000000000011 1.49999999995384
endloop
endfacet
facet normal 3.7886069435662e-018 2.30720514853422e-012 1.0
outer loop
vertex 25.1 40.0000000000011 1.49999999995384
vertex 27.0 22.0000000000012 1.49999999999537
vertex 27.0 37.5000000000011 1.49999999995961
endloop
endfacet
facet normal 3.7886069435662e-018 2.30720514853422e-012 1.0
outer loop
vertex 1.9 1.14490639191445e-012 1.50000000004613
vertex 2.8199664825479e-015 37.5000000000011 1.49999999995961
vertex 0.0 2.50000000000114 1.50000000004036
endloop
endfacet
facet normal 3.7886069435662e-018 2.30720514853422e-012 1.0
outer loop
vertex 2.8199664825479e-015 37.5000000000011 1.49999999995961
vertex 1.9 1.14490639191445e-012 1.50000000004613
vertex 1.9 40.0000000000011 1.49999999995384
endloop
endfacet
facet normal 3.7886069435662e-018 2.30720514853422e-012 1.0
outer loop
vertex 1.9 40.0000000000011 1.49999999995384
vertex 1.9 1.14490639191445e-012 1.50000000004613
vertex 1.9 2.50000000000114 1.50000000004036
endloop
endfacet
facet normal 3.7886069435662e-018 2.30720514853422e-012 1.0
outer loop
vertex 1.9 40.0000000000011 1.49999999995384
vertex 1.9 2.50000000000114 1.50000000004036
vertex 1.9 37.5000000000011 1.49999999995961
endloop
endfacet
facet normal 3.7886069435662e-018 2.30720514853422e-012 1.0
outer loop
vertex 1.9 40.0000000000011 1.49999999995384
vertex 1.9 37.5000000000011 1.49999999995961
vertex 3.4 37.5000000000011 1.49999999995961
endloop
endfacet
facet normal 3.7886069435662e-018 2.30720514853422e-012 1.0
outer loop
vertex 1.9 40.0000000000011 1.49999999995384
vertex 3.4 37.5000000000011 1.49999999995961
vertex 5.95040561302876 37.9683504747738 1.49999999995853
endloop
endfacet
facet normal 3.7886069435662e-018 2.30720514853422e-012 1.0
outer loop
vertex 1.9 40.0000000000011 1.49999999995384
vertex 5.95040561302876 37.9683504747738 1.49999999995853
vertex 6.18939980942819 37.9999438164028 1.49999999995846
endloop
endfacet
facet normal 3.7886069435662e-018 2.30720514853422e-012 1.0
outer loop
vertex 1.9 40.0000000000011 1.49999999995384
vertex 6.18939980942819 37.9999438164028 1.49999999995846
vertex 25.1 40.0000000000011 1.49999999995384
endloop
endfacet
facet normal 3.7886069435662e-018 2.30720514853422e-012 1.0
outer loop
vertex 5.95040561302876 37.9683504747738 1.49999999995853
vertex 3.4 37.5000000000011 1.49999999995961
vertex 5.72591693516141 37.8804801233618 1.49999999995873
endloop
endfacet
facet normal 3.7886069435662e-018 2.30720514853422e-012 1.0
outer loop
vertex 5.72591693516141 37.8804801233618 1.49999999995873
vertex 3.4 37.5000000000011 1.49999999995961
vertex 5.52898024180065 37.7414394675951 1.49999999995905
endloop
endfacet
facet normal 3.7886069435662e-018 2.30720514853422e-012 1.0
outer loop
vertex 5.52898024180065 37.7414394675951 1.49999999995905
vertex 3.4 37.5000000000011 1.49999999995961
vertex 3.4 36.0000000000012 1.49999999996307
endloop
endfacet
facet normal 3.7886069435662e-018 2.30720514853422e-012 1.0
outer loop
vertex 5.52898024180065 37.7414394675951 1.49999999995905
vertex 3.4 36.0000000000012 1.49999999996307
vertex 5.37104077772886 37.5593090449947 1.49999999995947
endloop
endfacet
facet normal 3.7886069435662e-018 2.30720514853422e-012 1.0
outer loop
vertex 5.37104077772886 37.5593090449947 1.49999999995947
vertex 3.4 36.0000000000012 1.49999999996307
vertex 5.2612774105113 37.3446736137049 1.49999999995997
endloop
endfacet
facet normal 3.7886069435662e-018 2.30720514853422e-012 1.0
outer loop
vertex 5.2612774105113 37.3446736137049 1.49999999995997
vertex 3.4 36.0000000000012 1.49999999996307
vertex 5.20606918807704 37.1100070048243 1.49999999996051
endloop
endfacet
facet normal 3.7886069435662e-018 2.30720514853422e-012 1.0
outer loop
vertex 25.1 40.0000000000011 1.49999999995384
vertex 6.18939980942819 37.9999438164028 1.49999999995846
vertex 6.42901005037354 37.9734240580703 1.49999999995852
endloop
endfacet
facet normal 3.7886069435662e-018 2.30720514853422e-012 1.0
outer loop
vertex 25.1 40.0000000000011 1.49999999995384
vertex 6.42901005037354 37.9734240580703 1.49999999995852
vertex 6.65531105960884 37.8903324317354 1.49999999995871
endloop
endfacet
facet normal 3.7886069435662e-018 2.30720514853422e-012 1.0
outer loop
vertex 25.1 40.0000000000011 1.49999999995384
vertex 6.65531105960884 37.8903324317354 1.49999999995871
vertex 6.85515104504803 37.7554979206948 1.49999999995902
endloop
endfacet
facet normal 3.7886069435662e-018 2.30720514853422e-012 1.0
outer loop
vertex 25.1 40.0000000000011 1.49999999995384
vertex 6.85515104504803 37.7554979206948 1.49999999995902
vertex 7.01691603312619 37.5767566166267 1.49999999995943
endloop
endfacet
facet normal 3.7886069435662e-018 2.30720514853422e-012 1.0
outer loop
vertex 25.1 40.0000000000011 1.49999999995384
vertex 7.01691603312619 37.5767566166267 1.49999999995943
vertex 7.13120483072802 37.3644963144253 1.49999999995992
endloop
endfacet
facet normal 3.7886069435662e-018 2.30720514853422e-012 1.0
outer loop
vertex 25.1 40.0000000000011 1.49999999995384
vertex 7.13120483072802 37.3644963144253 1.49999999995992
vertex 7.19137538835977 37.1310528113198 1.49999999996046
endloop
endfacet
facet normal 3.7886069435662e-018 2.30720514853422e-012 1.0
outer loop
vertex 25.1 40.0000000000011 1.49999999995384
vertex 7.19137538835977 37.1310528113198 1.49999999996046
vertex 7.19393081192297 36.889992995178 1.49999999996102
endloop
endfacet
facet normal 3.7886069435662e-018 2.30720514853422e-012 1.0
outer loop
vertex 25.1 40.0000000000011 1.49999999995384
vertex 7.19393081192297 36.889992995178 1.49999999996102
vertex 14.6504056130288 37.9683504747738 1.49999999995853
endloop
endfacet
facet normal 3.7886069435662e-018 2.30720514853422e-012 1.0
outer loop
vertex 14.6504056130288 37.9683504747738 1.49999999995853
vertex 7.19393081192297 36.889992995178 1.49999999996102
vertex 14.4259169351614 37.8804801233618 1.49999999995873
endloop
endfacet
facet normal 3.7886069435662e-018 2.30720514853422e-012 1.0
outer loop
vertex 14.4259169351614 37.8804801233618 1.49999999995873
vertex 7.19393081192297 36.889992995178 1.49999999996102
vertex 14.2289802418007 37.7414394675952 1.49999999995905
endloop
endfacet
facet normal 3.7886069435662e-018 2.30720514853422e-012 1.0
outer loop
vertex 14.2289802418007 37.7414394675952 1.49999999995905
vertex 7.19393081192297 36.889992995178 1.49999999996102
vertex 14.0710407777289 37.5593090449947 1.49999999995947
endloop
endfacet
facet normal 3.7886069435662e-018 2.30720514853422e-012 1.0
outer loop
vertex 14.0710407777289 37.5593090449947 1.49999999995947
vertex 7.19393081192297 36.889992995178 1.49999999996102
vertex 13.9612774105113 37.3446736137049 1.49999999995997
endloop
endfacet
facet normal 3.7886069435662e-018 2.30720514853422e-012 1.0
outer loop
vertex 13.9612774105113 37.3446736137049 1.49999999995997
vertex 7.19393081192297 36.889992995178 1.49999999996102
vertex 13.906069188077 37.1100070048243 1.49999999996051
endloop
endfacet
facet normal 3.7886069435662e-018 2.30720514853422e-012 1.0
outer loop
vertex 25.1 40.0000000000011 1.49999999995384
vertex 14.6504056130288 37.9683504747738 1.49999999995853
vertex 14.8893998094282 37.9999438164028 1.49999999995846
endloop
endfacet
facet normal 3.7886069435662e-018 2.30720514853422e-012 1.0
outer loop
vertex 25.1 40.0000000000011 1.49999999995384
vertex 14.8893998094282 37.9999438164028 1.49999999995846
vertex 15.1290100503735 37.9734240580704 1.49999999995852
endloop
endfacet
facet normal 3.7886069435662e-018 2.30720514853422e-012 1.0
outer loop
vertex 25.1 40.0000000000011 1.49999999995384
vertex 15.1290100503735 37.9734240580704 1.49999999995852
vertex 15.3553110596088 37.8903324317354 1.49999999995871
endloop
endfacet
facet normal 3.7886069435662e-018 2.30720514853422e-012 1.0
outer loop
vertex 25.1 40.0000000000011 1.49999999995384
vertex 15.3553110596088 37.8903324317354 1.49999999995871
vertex 15.555151045048 37.7554979206948 1.49999999995902
endloop
endfacet
facet normal 3.7886069435662e-018 2.30720514853422e-012 1.0
outer loop
vertex 25.1 40.0000000000011 1.49999999995384
vertex 15.555151045048 37.7554979206948 1.49999999995902
vertex 15.7169160331262 37.5767566166267 1.49999999995943
endloop
endfacet
facet normal 3.7886069435662e-018 2.30720514853422e-012 1.0
outer loop
vertex 25.1 40.0000000000011 1.49999999995384
vertex 15.7169160331262 37.5767566166267 1.49999999995943
vertex 15.831204830728 37.3644963144253 1.49999999995992
endloop
endfacet
facet normal 3.7886069435662e-018 2.30720514853422e-012 1.0
outer loop
vertex 25.1 40.0000000000011 1.49999999995384
vertex 15.831204830728 37.3644963144253 1.49999999995992
vertex 15.8913753883598 37.1310528113198 1.49999999996046
endloop
endfacet
facet normal 3.7886069435662e-018 2.30720514853422e-012 1.0
outer loop
vertex 25.1 40.0000000000011 1.49999999995384
vertex 15.8913753883598 37.1310528113198 1.49999999996046
vertex 15.893930811923 36.889992995178 1.49999999996102
endloop
endfacet
facet normal 3.7886069435662e-018 2.30720514853422e-012 1.0
outer loop
vertex 25.1 40.0000000000011 1.49999999995384
vertex 15.893930811923 36.889992995178 1.49999999996102
vertex 23.6 37.5000000000011 1.49999999995961
endloop
endfacet
facet normal 3.7886069435662e-018 2.30720514853422e-012 1.0
outer loop
vertex 23.6 37.5000000000011 1.49999999995961
vertex 15.893930811923 36.889992995178 1.49999999996102
vertex 23.6 36.0000000000012 1.49999999996307
endloop
endfacet
facet normal 3.7886069435662e-018 2.30720514853422e-012 1.0
outer loop
vertex 25.1 40.0000000000011 1.49999999995384
vertex 23.6 37.5000000000011 1.49999999995961
vertex 25.1 37.5000000000011 1.49999999995961
endloop
endfacet
facet normal 3.7886069435662e-018 2.30720514853422e-012 1.0
outer loop
vertex 14.9106001905718 36.0000561835995 1.49999999996307
vertex 6.44959438697125 36.0316495252285 1.499999999963
vertex 6.21060019057182 36.0000561835995 1.49999999996307
endloop
endfacet
facet normal 3.7886069435662e-018 2.30720514853422e-012 1.0
outer loop
vertex 6.44959438697125 36.0316495252285 1.499999999963
vertex 14.9106001905718 36.0000561835995 1.49999999996307
vertex 6.6740830648386 36.1195198766405 1.4999999999628
endloop
endfacet
facet normal 3.7886069435662e-018 2.30720514853422e-012 1.0
outer loop
vertex 6.6740830648386 36.1195198766405 1.4999999999628
vertex 14.9106001905718 36.0000561835995 1.49999999996307
vertex 6.87101975819936 36.2585605324071 1.49999999996247
endloop
endfacet
facet normal 3.7886069435662e-018 2.30720514853422e-012 1.0
outer loop
vertex 6.87101975819936 36.2585605324071 1.49999999996247
vertex 14.9106001905718 36.0000561835995 1.49999999996307
vertex 7.02895922227115 36.4406909550076 1.49999999996205
endloop
endfacet
facet normal 3.7886069435662e-018 2.30720514853422e-012 1.0
outer loop
vertex 7.02895922227115 36.4406909550076 1.49999999996205
vertex 14.9106001905718 36.0000561835995 1.49999999996307
vertex 7.13872258948871 36.6553263862974 1.49999999996156
endloop
endfacet
facet normal 3.7886069435662e-018 2.30720514853422e-012 1.0
outer loop
vertex 7.13872258948871 36.6553263862974 1.49999999996156
vertex 14.9106001905718 36.0000561835995 1.49999999996307
vertex 14.6709899496265 36.026575941932 1.49999999996301
endloop
endfacet
facet normal 3.7886069435662e-018 2.30720514853422e-012 1.0
outer loop
vertex 7.13872258948871 36.6553263862974 1.49999999996156
vertex 14.6709899496265 36.026575941932 1.49999999996301
vertex 7.19393081192297 36.889992995178 1.49999999996102
endloop
endfacet
facet normal 3.7886069435662e-018 2.30720514853422e-012 1.0
outer loop
vertex 7.19393081192297 36.889992995178 1.49999999996102
vertex 14.6709899496265 36.026575941932 1.49999999996301
vertex 14.4446889403912 36.1096675682669 1.49999999996282
endloop
endfacet
facet normal 3.7886069435662e-018 2.30720514853422e-012 1.0
outer loop
vertex 7.19393081192297 36.889992995178 1.49999999996102
vertex 14.4446889403912 36.1096675682669 1.49999999996282
vertex 14.244848954952 36.2445020793075 1.49999999996251
endloop
endfacet
facet normal 3.7886069435662e-018 2.30720514853422e-012 1.0
outer loop
vertex 7.19393081192297 36.889992995178 1.49999999996102
vertex 14.244848954952 36.2445020793075 1.49999999996251
vertex 14.0830839668738 36.4232433833756 1.49999999996209
endloop
endfacet
facet normal 3.7886069435662e-018 2.30720514853422e-012 1.0
outer loop
vertex 7.19393081192297 36.889992995178 1.49999999996102
vertex 14.0830839668738 36.4232433833756 1.49999999996209
vertex 13.968795169272 36.635503685577 1.4999999999616
endloop
endfacet
facet normal 3.7886069435662e-018 2.30720514853422e-012 1.0
outer loop
vertex 7.19393081192297 36.889992995178 1.49999999996102
vertex 13.968795169272 36.635503685577 1.4999999999616
vertex 13.9086246116402 36.8689471886825 1.49999999996107
endloop
endfacet
facet normal 3.7886069435662e-018 2.30720514853422e-012 1.0
outer loop
vertex 7.19393081192297 36.889992995178 1.49999999996102
vertex 13.9086246116402 36.8689471886825 1.49999999996107
vertex 13.906069188077 37.1100070048243 1.49999999996051
endloop
endfacet
facet normal 3.7886069435662e-018 2.30720514853422e-012 1.0
outer loop
vertex 3.4 36.0000000000012 1.49999999996307
vertex 5.20862461164024 36.8689471886825 1.49999999996107
vertex 5.20606918807704 37.1100070048243 1.49999999996051
endloop
endfacet
facet normal 3.7886069435662e-018 2.30720514853422e-012 1.0
outer loop
vertex 5.20862461164024 36.8689471886825 1.49999999996107
vertex 3.4 36.0000000000012 1.49999999996307
vertex 5.26879516927199 36.635503685577 1.4999999999616
endloop
endfacet
facet normal 3.7886069435662e-018 2.30720514853422e-012 1.0
outer loop
vertex 5.26879516927199 36.635503685577 1.4999999999616
vertex 3.4 36.0000000000012 1.49999999996307
vertex 5.38308396687382 36.4232433833756 1.49999999996209
endloop
endfacet
facet normal 3.7886069435662e-018 2.30720514853422e-012 1.0
outer loop
vertex 5.38308396687382 36.4232433833756 1.49999999996209
vertex 3.4 36.0000000000012 1.49999999996307
vertex 5.54484895495198 36.2445020793075 1.49999999996251
endloop
endfacet
facet normal 3.7886069435662e-018 2.30720514853422e-012 1.0
outer loop
vertex 5.54484895495198 36.2445020793075 1.49999999996251
vertex 3.4 36.0000000000012 1.49999999996307
vertex 5.74468894039117 36.1096675682669 1.49999999996282
endloop
endfacet
facet normal 3.7886069435662e-018 2.30720514853422e-012 1.0
outer loop
vertex 5.74468894039117 36.1096675682669 1.49999999996282
vertex 3.4 36.0000000000012 1.49999999996307
vertex 5.97098994962647 36.026575941932 1.49999999996301
endloop
endfacet
facet normal 3.7886069435662e-018 2.30720514853422e-012 1.0
outer loop
vertex 5.97098994962647 36.026575941932 1.49999999996301
vertex 3.4 36.0000000000012 1.49999999996307
vertex 6.21060019057182 36.0000561835995 1.49999999996307
endloop
endfacet
facet normal 0.706956766501975 0.707242957794189 0.00441915688794077
outer loop
vertex 14.1928932188135 36.2928932188112 -3.76042530447762e-011
vertex 14.244848954952 36.2445020793075 1.49999999996251
vertex 14.4 36.1339745962133 -3.72373049062347e-011
endloop
endfacet
facet normal 0.49974846979826 0.866162735397065 0.00368547741422939
outer loop
vertex 14.4 36.1339745962133 -3.72373049062347e-011
vertex 14.244848954952 36.2445020793075 1.49999999996251
vertex 14.4446889403912 36.1096675682669 1.49999999996282
endloop
endfacet
facet normal -0.704796043669356 -0.709409939597675 0.000272815040797403
outer loop
vertex 15.6071067811866 37.7071067811843 -4.08669542650841e-011
vertex 15.3553110596088 37.8903324317354 1.49999999995871
vertex 15.4 37.8660254037822 -4.12335499078154e-011
endloop
endfacet
facet normal -0.704796043669356 -0.709409939597675 0.000272815040797403
outer loop
vertex 15.6071067811866 37.7071067811843 -4.08669542650841e-011
vertex 15.555151045048 37.7554979206948 1.49999999995902
vertex 15.3553110596088 37.8903324317354 1.49999999995871
endloop
endfacet
facet normal -0.499671220327412 0.866211098573371 0.00264656094383851
outer loop
vertex 15.4 36.1339745962133 -3.72373049062347e-011
vertex 15.5710197581993 36.2585605324072 1.49999999996247
vertex 15.6071067811866 36.2928932188112 -3.76042530447762e-011
endloop
endfacet
facet normal -0.499671220327412 0.866211098573371 0.00264656094383851
outer loop
vertex 15.4 36.1339745962133 -3.72373049062347e-011
vertex 15.3740830648386 36.1195198766405 1.49999999996279
vertex 15.5710197581993 36.2585605324072 1.49999999996247
endloop
endfacet
facet normal -0.259453753520676 -0.965753831697249 -0.00181282820851216
outer loop
vertex 15.1588190451025 37.9659258262868 -4.14640821677637e-011
vertex 14.8893998094282 37.9999438164028 1.49999999995846
vertex 14.9 37.9999999999977 -4.15426887334647e-011
endloop
endfacet
facet normal -0.259453753520676 -0.965753831697249 -0.00181282820851216
outer loop
vertex 15.1588190451025 37.9659258262868 -4.14640821677637e-011
vertex 15.1290100503735 37.9734240580704 1.49999999995852
vertex 14.8893998094282 37.9999438164028 1.49999999995846
endloop
endfacet
facet normal -0.991366646731127 -0.131049232757349 -0.0042743821531601
outer loop
vertex 15.8913753883598 37.1310528113198 1.49999999996046
vertex 15.831204830728 37.3644963144253 1.49999999995992
vertex 15.8659258262891 37.2588190451002 -3.98327315576097e-011
endloop
endfacet
facet normal -0.965903087213536 -0.258852740121124 0.0051463621273944
outer loop
vertex 15.8659258262891 37.2588190451002 -3.98327315576097e-011
vertex 15.831204830728 37.3644963144253 1.49999999995992
vertex 15.7660254037844 37.4999999999977 -4.03893224421026e-011
endloop
endfacet
facet normal 0.500564110517922 -0.865697770098798 -0.0017152572315542
outer loop
vertex 14.4 37.8660254037822 -4.12335499078154e-011
vertex 14.4259169351614 37.8804801233618 1.49999999995873
vertex 14.1928932188135 37.7071067811843 -4.08669542650841e-011
endloop
endfacet
facet normal 0.705482515118282 -0.708726779279867 0.000879314488125371
outer loop
vertex 14.1928932188135 37.7071067811843 -4.08669542650841e-011
vertex 14.4259169351614 37.8804801233618 1.49999999995873
vertex 14.2289802418007 37.7414394675952 1.49999999995905
endloop
endfacet
facet normal 0.25944694249799 -0.965757362839958 -1.22006304480116e-005
outer loop
vertex 14.6411809548975 37.9659258262868 -4.14640821677637e-011
vertex 14.6504056130288 37.9683504747738 1.49999999995853
vertex 14.4 37.8660254037822 -4.12335499078154e-011
endloop
endfacet
facet normal 0.500564110517922 -0.865697770098798 -0.0017152572315542
outer loop
vertex 14.4 37.8660254037822 -4.12335499078154e-011
vertex 14.6504056130288 37.9683504747738 1.49999999995853
vertex 14.4259169351614 37.8804801233618 1.49999999995873
endloop
endfacet
facet normal 0.250022260097309 -0.968238810096474 0.00157355609961451
outer loop
vertex 14.6504056130288 37.9683504747738 1.49999999995853
vertex 14.9 37.9999999999977 -4.15426887334647e-011
vertex 14.8893998094282 37.9999438164028 1.49999999995846
endloop
endfacet
facet normal -0.000465518348721992 -0.999999889662225 -6.29936910204633e-005
outer loop
vertex 14.9 37.9999999999977 -4.15426887334647e-011
vertex 14.6504056130288 37.9683504747738 1.49999999995853
vertex 14.6411809548975 37.9659258262868 -4.14640821677637e-011
endloop
endfacet
facet normal -0.99391199057113 0.110098803752824 -0.00414830219857955
outer loop
vertex 15.893930811923 36.889992995178 1.49999999996102
vertex 15.8913753883598 37.1310528113198 1.49999999996046
vertex 15.9 36.9999999999977 -3.92356036549302e-011
endloop
endfacet
facet normal -0.999986789951765 4.27159886827751e-005 0.00513985382172696
outer loop
vertex 15.9 36.9999999999977 -3.92356036549302e-011
vertex 15.8913753883598 37.1310528113198 1.49999999996046
vertex 15.8659258262891 37.2588190451002 -3.98327315576097e-011
endloop
endfacet
facet normal -0.931164496534794 -0.364575598455405 -0.00416093787341273
outer loop
vertex 15.831204830728 37.3644963144253 1.49999999995992
vertex 15.7169160331262 37.5767566166267 1.49999999995943
vertex 15.7660254037844 37.4999999999977 -4.03893224421026e-011
endloop
endfacet
facet normal -0.865955024027876 -0.500097816718388 0.00490612620944423
outer loop
vertex 15.7660254037844 37.4999999999977 -4.03893224421026e-011
vertex 15.7169160331262 37.5767566166267 1.49999999995943
vertex 15.6071067811866 37.7071067811843 -4.08669542650841e-011
endloop
endfacet
facet normal -0.816807083841842 -0.576898333486797 -0.00380796611614072
outer loop
vertex 15.7169160331262 37.5767566166267 1.49999999995943
vertex 15.555151045048 37.7554979206948 1.49999999995902
vertex 15.6071067811866 37.7071067811843 -4.08669542650841e-011
endloop
endfacet
facet normal 0.81680708384184 0.576898333486784 -0.00380796611879107
outer loop
vertex 14.0830839668738 36.4232433833756 1.49999999996209
vertex 14.0339745962156 36.4999999999977 -3.80818848677578e-011
vertex 13.968795169272 36.635503685577 1.4999999999616
endloop
endfacet
facet normal 0.865955024027877 0.500097816718409 0.00490612620714723
outer loop
vertex 14.0339745962156 36.4999999999977 -3.80818848677578e-011
vertex 13.9340741737109 36.7411809548952 -3.86384757522507e-011
vertex 13.968795169272 36.635503685577 1.4999999999616
endloop
endfacet
facet normal -0.670753088328919 0.741677053910153 -0.00233285241144735
outer loop
vertex 15.5710197581993 36.2585605324072 1.49999999996247
vertex 15.7289592222711 36.4406909550076 1.49999999996205
vertex 15.6071067811866 36.2928932188112 -3.76042530447762e-011
endloop
endfacet
facet normal -0.70689630308411 0.707307830892984 0.00363992355418753
outer loop
vertex 15.6071067811866 36.2928932188112 -3.76042530447762e-011
vertex 15.7289592222711 36.4406909550076 1.49999999996205
vertex 15.7660254037844 36.4999999999977 -3.80818848677578e-011
endloop
endfacet
facet normal 0.259038663206087 0.965855377230149 0.00472876728218393
outer loop
vertex 14.6411809548975 36.0340741737087 -3.70078301337173e-011
vertex 14.4 36.1339745962133 -3.72373049062347e-011
vertex 14.4446889403912 36.1096675682669 1.49999999996282
endloop
endfacet
facet normal 0.341061506666646 0.940040696614486 0.000733061272162558
outer loop
vertex 14.6709899496265 36.026575941932 1.49999999996301
vertex 14.6411809548975 36.0340741737087 -3.70078301337173e-011
vertex 14.4446889403912 36.1096675682669 1.49999999996282
endloop
endfacet
facet normal 0.259038663206087 0.965855377230149 0.00472876728218393
outer loop
vertex 14.6411809548975 36.0340741737087 -3.70078301337173e-011
vertex 14.6709899496265 36.026575941932 1.49999999996301
vertex 14.667026314756 36.0171172023355 1.30049611292493
endloop
endfacet
facet normal -0.24519376371337 0.969473991936587 -0.000444065999201054
outer loop
vertex 15.1495943869712 36.0316495252285 1.499999999963
vertex 14.9091931049719 36.006661439753 1.30044384643743
vertex 14.9106001905718 36.0000561835995 1.49999999996307
endloop
endfacet
facet normal -0.0559492442662605 0.998433059471466 -0.00105253051377753
outer loop
vertex 14.9091931049719 36.006661439753 1.30044384643743
vertex 15.1495943869712 36.0316495252285 1.499999999963
vertex 15.1588190451025 36.0340741737087 -3.70078301337173e-011
endloop
endfacet
facet normal -0.0559492442662605 0.998433059471466 -0.00105253051377753
outer loop
vertex 14.9091931049719 36.006661439753 1.30044384643743
vertex 15.1588190451025 36.0340741737087 -3.70078301337173e-011
vertex 14.9 35.9999999999977 -3.69292235680163e-011
endloop
endfacet
facet normal -0.938652672351134 0.344843228019725 -0.0037826944114984
outer loop
vertex 15.8387225894887 36.6553263862974 1.49999999996156
vertex 15.893930811923 36.889992995178 1.49999999996102
vertex 15.8659258262891 36.7411809548952 -3.86384757522507e-011
endloop
endfacet
facet normal -0.965882135346566 0.258935941389671 0.00488660158007957
outer loop
vertex 15.8659258262891 36.7411809548952 -3.86384757522507e-011
vertex 15.893930811923 36.889992995178 1.49999999996102
vertex 15.9 36.9999999999977 -3.92356036549302e-011
endloop
endfacet
facet normal -0.254736408340045 0.967010079993617 0.000931373584016979
outer loop
vertex 15.1588190451025 36.0340741737087 -3.70078301337173e-011
vertex 15.3740830648386 36.1195198766405 1.49999999996279
vertex 15.4 36.1339745962133 -3.72373049062347e-011
endloop
endfacet
facet normal -0.254736408340045 0.967010079993617 0.000931373584016979
outer loop
vertex 15.1588190451025 36.0340741737087 -3.70078301337173e-011
vertex 15.1495943869712 36.0316495252285 1.499999999963
vertex 15.3740830648386 36.1195198766405 1.49999999996279
endloop
endfacet
facet normal -0.500654088824525 -0.865639130387259 -0.00379200285798678
outer loop
vertex 15.4 37.8660254037822 -4.12335499078154e-011
vertex 15.1290100503735 37.9734240580704 1.49999999995852
vertex 15.1588190451025 37.9659258262868 -4.14640821677637e-011
endloop
endfacet
facet normal -0.500654088824525 -0.865639130387259 -0.00379200285798678
outer loop
vertex 15.4 37.8660254037822 -4.12335499078154e-011
vertex 15.3553110596088 37.8903324317354 1.49999999995871
vertex 15.1290100503735 37.9734240580704 1.49999999995852
endloop
endfacet
facet normal 0.938652672351136 -0.344843228019737 -0.00378269440991276
outer loop
vertex 13.9612774105113 37.3446736137049 1.49999999995997
vertex 14.0339745962156 37.4999999999977 -4.03893224421026e-011
vertex 14.0710407777289 37.5593090449947 1.49999999995947
endloop
endfacet
facet normal 0.865913673752319 -0.500174236842994 0.00438661683891169
outer loop
vertex 14.0339745962156 37.4999999999977 -4.03893224421026e-011
vertex 14.1928932188135 37.7071067811843 -4.08669542650841e-011
vertex 14.0710407777289 37.5593090449947 1.49999999995947
endloop
endfacet
facet normal 0.828803126266592 -0.55953130481917 -0.00317754906827772
outer loop
vertex 14.0710407777289 37.5593090449947 1.49999999995947
vertex 14.1928932188135 37.7071067811843 -4.08669542650841e-011
vertex 14.2289802418007 37.7414394675952 1.49999999995905
endloop
endfacet
facet normal -0.828803126266591 0.559531304819156 -0.00317754907084988
outer loop
vertex 15.7289592222711 36.4406909550076 1.49999999996205
vertex 15.8387225894887 36.6553263862974 1.49999999996156
vertex 15.7660254037844 36.4999999999977 -3.80818848677578e-011
endloop
endfacet
facet normal -0.865913673752318 0.500174236843015 0.0043866168366119
outer loop
vertex 15.7660254037844 36.4999999999977 -3.80818848677578e-011
vertex 15.8387225894887 36.6553263862974 1.49999999996156
vertex 15.8659258262891 36.7411809548952 -3.86384757522507e-011
endloop
endfacet
facet normal 0.993911990571131 -0.110098803752838 -0.00414830219807345
outer loop
vertex 13.906069188077 37.1100070048243 1.49999999996051
vertex 13.9340741737109 37.2588190451002 -3.98327315576097e-011
vertex 13.9612774105113 37.3446736137049 1.49999999995997
endloop
endfacet
facet normal 0.965882135346565 -0.258935941389652 0.00488660158126999
outer loop
vertex 13.9340741737109 37.2588190451002 -3.98327315576097e-011
vertex 14.0339745962156 37.4999999999977 -4.03893224421026e-011
vertex 13.9612774105113 37.3446736137049 1.49999999995997
endloop
endfacet
facet normal 0.654945951501645 0.755668883470143 -0.00321545744676238
outer loop
vertex 14.244848954952 36.2445020793075 1.49999999996251
vertex 14.1928932188135 36.2928932188112 -3.76042530447762e-011
vertex 14.0830839668738 36.4232433833756 1.49999999996209
endloop
endfacet
facet normal 0.706956766501975 0.707242957794189 0.00441915688794077
outer loop
vertex 14.1928932188135 36.2928932188112 -3.76042530447762e-011
vertex 14.0339745962156 36.4999999999977 -3.80818848677578e-011
vertex 14.0830839668738 36.4232433833756 1.49999999996209
endloop
endfacet
facet normal 0.931164496534793 0.364575598455389 -0.00416093787508694
outer loop
vertex 13.968795169272 36.635503685577 1.4999999999616
vertex 13.9340741737109 36.7411809548952 -3.86384757522507e-011
vertex 13.9086246116402 36.8689471886825 1.49999999996107
endloop
endfacet
facet normal 0.965903087213535 0.25885274012115 0.00514636212620556
outer loop
vertex 13.9340741737109 36.7411809548952 -3.86384757522507e-011
vertex 13.9 36.9999999999977 -3.92356036549302e-011
vertex 13.9086246116402 36.8689471886825 1.49999999996107
endloop
endfacet
facet normal 0.11399567594009 0.993475505171526 0.00337734972193302
outer loop
vertex 14.7015011498434 36.0148483233761 1.30029879700824
vertex 14.667026314756 36.0171172023355 1.30049611292493
vertex 14.6709899496265 36.026575941932 1.49999999996301
endloop
endfacet
facet normal 0.247556488562203 0.968868161026558 0.00320492117969026
outer loop
vertex 14.667026314756 36.0171172023355 1.30049611292493
vertex 14.7015011498434 36.0148483233761 1.30029879700824
vertex 14.6411809548975 36.0340741737087 -3.70078301337173e-011
endloop
endfacet
facet normal 0.259038663206087 0.965855377230149 0.00472876728218393
outer loop
vertex 14.6411809548975 36.0340741737087 -3.70078301337173e-011
vertex 14.7015011498434 36.0148483233761 1.30029879700824
vertex 14.9 35.9999999999977 -3.69292235680163e-011
endloop
endfacet
facet normal 0.00127556717202645 0.999995796054068 0.00260399742335729
outer loop
vertex 14.9 35.9999999999977 -3.69292235680163e-011
vertex 14.7015011498434 36.0148483233761 1.30029879700824
vertex 14.9091931049719 36.006661439753 1.30044384643743
endloop
endfacet
facet normal 0.991366646731127 0.131049232757332 -0.00427438215376225
outer loop
vertex 13.9086246116402 36.8689471886825 1.49999999996107
vertex 13.9 36.9999999999977 -3.92356036549302e-011
vertex 13.906069188077 37.1100070048243 1.49999999996051
endloop
endfacet
facet normal 0.999986789951765 -4.27159886643128e-005 0.00513985382172691
outer loop
vertex 13.9 36.9999999999977 -3.92356036549302e-011
vertex 13.9340741737109 37.2588190451002 -3.98327315576097e-011
vertex 13.906069188077 37.1100070048243 1.49999999996051
endloop
endfacet
facet normal -0.000386909713769409 -0.99986363425128 -0.0165094882626981
outer loop
vertex 14.9106001905718 36.0000561835995 1.49999999996307
vertex 23.6 36.0000000000007 1.29999999996307
vertex 23.6 36.0000000000012 1.49999999996307
endloop
endfacet
facet normal -0.000386909713769409 -0.99986363425128 -0.0165094882626981
outer loop
vertex 23.6 36.0000000000007 1.29999999996307
vertex 14.9106001905718 36.0000561835995 1.49999999996307
vertex 14.9091931049719 36.006661439753 1.30044384643743
endloop
endfacet
facet normal 0.928460619279075 0.365510897215499 -0.0660504539321146
outer loop
vertex 5.26879516927199 36.635503685577 1.4999999999616
vertex 5.13407417371094 36.7411809548952 -3.86374182648197e-011
vertex 5.20862461164024 36.8689471886825 1.49999999996107
endloop
endfacet
facet normal 0.964587525929806 0.257040737791317 -0.0591689440188916
outer loop
vertex 5.13407417371094 36.7411809548952 -3.86374182648197e-011
vertex 5.1 36.9999999999977 -3.92345461674992e-011
vertex 5.20862461164024 36.8689471886825 1.49999999996107
endloop
endfacet
facet normal 0.264197935447975 0.96438238378288 -0.0128867666339362
outer loop
vertex 5.84118095489748 36.0340741737086 -3.70071251420967e-011
vertex 5.6 36.1339745962133 -3.72362474188037e-011
vertex 5.74468894039117 36.1096675682669 1.49999999996282
endloop
endfacet
facet normal 0.247731161700935 0.968738501478973 -0.0132282755709018
outer loop
vertex 5.95375269802953 36.0168433312428 1.30046320093973
vertex 5.74468894039117 36.1096675682669 1.49999999996282
vertex 5.97098994962647 36.026575941932 1.49999999996301
endloop
endfacet
facet normal 0.459288222793362 0.887715812688799 -0.0318585044467068
outer loop
vertex 5.74468894039117 36.1096675682669 1.49999999996282
vertex 5.95375269802953 36.0168433312428 1.30046320093973
vertex 5.84118095489748 36.0340741737086 -3.70071251420967e-011
endloop
endfacet
facet normal -0.672927068658056 0.738486201003396 0.0425122475863963
outer loop
vertex 6.87101975819936 36.2585605324071 1.49999999996247
vertex 7.02895922227115 36.4406909550076 1.49999999996205
vertex 6.80710678118655 36.2928932188112 -3.76042530447762e-011
endloop
endfacet
facet normal -0.703226566495085 0.70916955175014 0.0505068613758539
outer loop
vertex 6.80710678118655 36.2928932188112 -3.76042530447762e-011
vertex 7.02895922227115 36.4406909550076 1.49999999996205
vertex 6.96602540378444 36.4999999999977 -3.80822373635681e-011
endloop
endfacet
facet normal 0.813736676816184 0.578327968627742 -0.0580463737632535
outer loop
vertex 5.38308396687382 36.4232433833756 1.49999999996209
vertex 5.23397459621556 36.4999999999977 -3.80808273803268e-011
vertex 5.26879516927199 36.635503685577 1.4999999999616
endloop
endfacet
facet normal 0.866116725964034 0.497041112099321 -0.0528389050644783
outer loop
vertex 5.23397459621556 36.4999999999977 -3.80808273803268e-011
vertex 5.13407417371094 36.7411809548952 -3.86374182648197e-011
vertex 5.26879516927199 36.635503685577 1.4999999999616
endloop
endfacet
facet normal 0.504374890265232 -0.86275973360246 -0.0353781308741241
outer loop
vertex 5.6 37.8660254037822 -4.1233197412005e-011
vertex 5.72591693516141 37.8804801233618 1.49999999995873
vertex 5.39289321881346 37.7071067811843 -4.08662492734635e-011
endloop
endfacet
facet normal 0.707493941734176 -0.7052087201573 -0.0461842334952201
outer loop
vertex 5.39289321881346 37.7071067811843 -4.08662492734635e-011
vertex 5.72591693516141 37.8804801233618 1.49999999995873
vertex 5.52898024180065 37.7414394675951 1.49999999995905
endloop
endfacet
facet normal 0.651321551796189 0.757368254589193 -0.0466214876030743
outer loop
vertex 5.54484895495198 36.2445020793075 1.49999999996251
vertex 5.39289321881346 36.2928932188112 -3.76031955573453e-011
vertex 5.38308396687382 36.4232433833756 1.49999999996209
endloop
endfacet
facet normal 0.709044294907402 0.70386107289344 -0.0428459790944329
outer loop
vertex 5.39289321881346 36.2928932188112 -3.76031955573453e-011
vertex 5.23397459621556 36.4999999999977 -3.80808273803268e-011
vertex 5.38308396687382 36.4232433833756 1.49999999996209
endloop
endfacet
facet normal -0.930279227035596 -0.362260173748492 0.0578629956169478
outer loop
vertex 7.13120483072802 37.3644963144253 1.49999999995992
vertex 7.01691603312619 37.5767566166267 1.49999999995943
vertex 6.96602540378444 37.4999999999977 -4.03896749379129e-011
endloop
endfacet
facet normal -0.862891597121643 -0.501519205577389 0.0624225764758616
outer loop
vertex 6.96602540378444 37.4999999999977 -4.03896749379129e-011
vertex 7.01691603312619 37.5767566166267 1.49999999995943
vertex 6.80710678118655 37.7071067811843 -4.08673067608944e-011
endloop
endfacet
facet normal -0.817436639094308 -0.573784218403565 0.0506854197695269
outer loop
vertex 7.01691603312619 37.5767566166267 1.49999999995943
vertex 6.85515104504803 37.7554979206948 1.49999999995902
vertex 6.80710678118655 37.7071067811843 -4.08673067608944e-011
endloop
endfacet
facet normal -0.254239362503314 -0.967022193705347 0.015179704714061
outer loop
vertex 6.35881904510252 37.9659258262868 -4.14640821677637e-011
vertex 6.18939980942819 37.9999438164028 1.49999999995846
vertex 6.1 37.9999999999977 -4.15426887334647e-011
endloop
endfacet
facet normal -0.254239362503314 -0.967022193705347 0.015179704714061
outer loop
vertex 6.35881904510252 37.9659258262868 -4.14640821677637e-011
vertex 6.42901005037354 37.9734240580703 1.49999999995852
vertex 6.18939980942819 37.9999438164028 1.49999999995846
endloop
endfacet
facet normal 0.935994570424847 -0.345738833441535 -0.0661726770328475
outer loop
vertex 5.2612774105113 37.3446736137049 1.49999999995997
vertex 5.23397459621556 37.4999999999977 -4.03886174504819e-011
vertex 5.37104077772886 37.5593090449947 1.49999999995947
endloop
endfacet
facet normal 0.866051127895205 -0.497100735986752 -0.0533507465071744
outer loop
vertex 5.23397459621556 37.4999999999977 -4.03886174504819e-011
vertex 5.39289321881346 37.7071067811843 -4.08662492734635e-011
vertex 5.37104077772886 37.5593090449947 1.49999999995947
endloop
endfacet
facet normal 0.825801473444109 -0.560948010100879 -0.0582173206305734
outer loop
vertex 5.37104077772886 37.5593090449947 1.49999999995947
vertex 5.39289321881346 37.7071067811843 -4.08662492734635e-011
vertex 5.52898024180065 37.7414394675951 1.49999999995905
endloop
endfacet
facet normal -0.496258330476738 -0.867679037832299 0.0293386560506225
outer loop
vertex 6.6 37.8660254037822 -4.12339024036257e-011
vertex 6.42901005037354 37.9734240580703 1.49999999995852
vertex 6.35881904510252 37.9659258262868 -4.14640821677637e-011
endloop
endfacet
facet normal -0.496258330476738 -0.867679037832299 0.0293386560506225
outer loop
vertex 6.6 37.8660254037822 -4.12339024036257e-011
vertex 6.65531105960884 37.8903324317354 1.49999999995871
vertex 6.42901005037354 37.9734240580703 1.49999999995852
endloop
endfacet
facet normal -0.495199282199725 0.868048106200469 0.0356392512639573
outer loop
vertex 6.6 36.1339745962133 -3.72373049062347e-011
vertex 6.87101975819936 36.2585605324071 1.49999999996247
vertex 6.80710678118655 36.2928932188112 -3.76042530447762e-011
endloop
endfacet
facet normal -0.495199282199725 0.868048106200469 0.0356392512639573
outer loop
vertex 6.6 36.1339745962133 -3.72373049062347e-011
vertex 6.6740830648386 36.1195198766405 1.4999999999628
vertex 6.87101975819936 36.2585605324071 1.49999999996247
endloop
endfacet
facet normal -0.701212793857662 -0.711409785320409 0.0468693405191784
outer loop
vertex 6.80710678118655 37.7071067811843 -4.08673067608944e-011
vertex 6.65531105960884 37.8903324317354 1.49999999995871
vertex 6.6 37.8660254037822 -4.12339024036257e-011
endloop
endfacet
facet normal -0.701212793857662 -0.711409785320409 0.0468693405191784
outer loop
vertex 6.80710678118655 37.7071067811843 -4.08673067608944e-011
vertex 6.85515104504803 37.7554979206948 1.49999999995902
vertex 6.65531105960884 37.8903324317354 1.49999999995871
endloop
endfacet
facet normal -0.937636243957584 0.342621041580578 0.0587290037660689
outer loop
vertex 7.13872258948871 36.6553263862974 1.49999999996156
vertex 7.19393081192297 36.889992995178 1.49999999996102
vertex 7.06592582628907 36.7411809548952 -3.8638828248061e-011
endloop
endfacet
facet normal -0.963214022213964 0.259702159531759 0.0690907790152805
outer loop
vertex 7.06592582628907 36.7411809548952 -3.8638828248061e-011
vertex 7.19393081192297 36.889992995178 1.49999999996102
vertex 7.1 36.9999999999977 -3.92359561507405e-011
endloop
endfacet
facet normal 0.709044294907402 0.70386107289344 -0.0428459790944329
outer loop
vertex 5.39289321881346 36.2928932188112 -3.76031955573453e-011
vertex 5.54484895495198 36.2445020793075 1.49999999996251
vertex 5.6 36.1339745962133 -3.72362474188037e-011
endloop
endfacet
facet normal 0.503638278086543 0.863397871681402 -0.0298764124694897
outer loop
vertex 5.6 36.1339745962133 -3.72362474188037e-011
vertex 5.54484895495198 36.2445020793075 1.49999999996251
vertex 5.74468894039117 36.1096675682669 1.49999999996282
endloop
endfacet
facet normal 0.991404172123884 -0.110385148416276 -0.0702345107797702
outer loop
vertex 5.20606918807704 37.1100070048243 1.49999999996051
vertex 5.13407417371093 37.2588190451002 -3.98316740701787e-011
vertex 5.2612774105113 37.3446736137049 1.49999999995997
endloop
endfacet
facet normal 0.964551125394225 -0.257118358628038 -0.0594245417076005
outer loop
vertex 5.13407417371093 37.2588190451002 -3.98316740701787e-011
vertex 5.23397459621556 37.4999999999977 -4.03886174504819e-011
vertex 5.2612774105113 37.3446736137049 1.49999999995997
endloop
endfacet
facet normal 0.988842903547051 0.131388790410771 -0.070190439940441
outer loop
vertex 5.20862461164024 36.8689471886825 1.49999999996107
vertex 5.1 36.9999999999977 -3.92345461674992e-011
vertex 5.20606918807704 37.1100070048243 1.49999999996051
endloop
endfacet
facet normal 0.998112509252778 -4.21975324126055e-005 -0.0614118644277486
outer loop
vertex 5.1 36.9999999999977 -3.92345461674992e-011
vertex 5.13407417371093 37.2588190451002 -3.98316740701787e-011
vertex 5.20606918807704 37.1100070048243 1.49999999996051
endloop
endfacet
facet normal -0.829257476075781 0.556432957507838 0.0520999248704486
outer loop
vertex 7.02895922227115 36.4406909550076 1.49999999996205
vertex 7.13872258948871 36.6553263862974 1.49999999996156
vertex 6.96602540378444 36.4999999999977 -3.80822373635681e-011
endloop
endfacet
facet normal -0.862875095053088 0.501612353275136 0.0619000596034012
outer loop
vertex 6.96602540378444 36.4999999999977 -3.80822373635681e-011
vertex 7.13872258948871 36.6553263862974 1.49999999996156
vertex 7.06592582628907 36.7411809548952 -3.8638828248061e-011
endloop
endfacet
facet normal -0.259407089608012 0.965533557546637 0.0212817084002998
outer loop
vertex 6.43752034418454 36.0193167339324 1.30046430286397
vertex 6.4029831171218 36.0170455736705 1.30022474449849
vertex 6.44959438697125 36.0316495252285 1.499999999963
endloop
endfacet
facet normal -0.104789405124461 0.994451037353402 0.00929058019739613
outer loop
vertex 6.4029831171218 36.0170455736705 1.30022474449849
vertex 6.43752034418454 36.0193167339324 1.30046430286397
vertex 6.35881904510252 36.0340741737087 -3.7007477637907e-011
endloop
endfacet
facet normal -0.104789405124461 0.994451037353402 0.00929058019739613
outer loop
vertex 6.4029831171218 36.0170455736705 1.30022474449849
vertex 6.35881904510252 36.0340741737087 -3.7007477637907e-011
vertex 6.1 35.9999999999977 -3.69285185763957e-011
endloop
endfacet
facet normal 0.00535566442858981 0.999975473927198 0.00451313667032784
outer loop
vertex 6.1 35.9999999999977 -3.69285185763957e-011
vertex 6.18264479736503 36.006661439753 1.30044384643743
vertex 6.4029831171218 36.0170455736705 1.30022474449849
endloop
endfacet
facet normal -0.130881554027148 0.990079878083145 0.0511062993211459
outer loop
vertex 6.18264479736503 36.006661439753 1.30044384643743
vertex 6.21060019057182 36.0000561835995 1.49999999996307
vertex 6.44959438697125 36.0316495252285 1.499999999963
endloop
endfacet
facet normal -0.989572536325418 -0.130148103158936 0.0617062929903536
outer loop
vertex 7.19137538835977 37.1310528113198 1.49999999996046
vertex 7.13120483072802 37.3644963144253 1.49999999995992
vertex 7.06592582628907 37.2588190451002 -3.983308405342e-011
endloop
endfacet
facet normal -0.963219070875246 -0.259613875839172 0.0693516904912216
outer loop
vertex 7.06592582628907 37.2588190451002 -3.983308405342e-011
vertex 7.13120483072802 37.3644963144253 1.49999999995992
vertex 6.96602540378444 37.4999999999977 -4.03896749379129e-011
endloop
endfacet
facet normal -0.992069304822668 0.109337821062149 0.061997865399137
outer loop
vertex 7.19393081192297 36.889992995178 1.49999999996102
vertex 7.19137538835977 37.1310528113198 1.49999999996046
vertex 7.1 36.9999999999977 -3.92359561507405e-011
endloop
endfacet
facet normal -0.997431573286546 4.2884587377889e-005 0.0716257968335325
outer loop
vertex 7.1 36.9999999999977 -3.92359561507405e-011
vertex 7.19137538835977 37.1310528113198 1.49999999996046
vertex 7.06592582628907 37.2588190451002 -3.983308405342e-011
endloop
endfacet
facet normal -0.253945108082383 0.966991910348009 0.0209410458796612
outer loop
vertex 6.35881904510252 36.0340741737087 -3.7007477637907e-011
vertex 6.6740830648386 36.1195198766405 1.4999999999628
vertex 6.6 36.1339745962133 -3.72373049062347e-011
endloop
endfacet
facet normal -0.486385208868523 0.873140083856138 0.0324934232979593
outer loop
vertex 6.6740830648386 36.1195198766405 1.4999999999628
vertex 6.43752034418454 36.0193167339324 1.30046430286397
vertex 6.44959438697125 36.0316495252285 1.499999999963
endloop
endfacet
facet normal -0.259407089608012 0.965533557546637 0.0212817084002998
outer loop
vertex 6.43752034418454 36.0193167339324 1.30046430286397
vertex 6.6740830648386 36.1195198766405 1.4999999999628
vertex 6.35881904510252 36.0340741737087 -3.7007477637907e-011
endloop
endfacet
facet normal 0.264542373668476 -0.964211927161561 -0.0176831007811596
outer loop
vertex 5.84118095489748 37.9659258262868 -4.14637296719533e-011
vertex 5.95040561302876 37.9683504747738 1.49999999995853
vertex 5.6 37.8660254037822 -4.1233197412005e-011
endloop
endfacet
facet normal 0.504374890265232 -0.86275973360246 -0.0353781308741241
outer loop
vertex 5.6 37.8660254037822 -4.1233197412005e-011
vertex 5.95040561302876 37.9683504747738 1.49999999995853
vertex 5.72591693516141 37.8804801233618 1.49999999995873
endloop
endfacet
facet normal 0.245176395766715 -0.969365417813749 -0.0148061374307509
outer loop
vertex 5.95040561302876 37.9683504747738 1.49999999995853
vertex 6.1 37.9999999999977 -4.15426887334647e-011
vertex 6.18939980942819 37.9999438164028 1.49999999995846
endloop
endfacet
facet normal 0.00507338075452548 -0.999987064430104 -0.000363015402847574
outer loop
vertex 6.1 37.9999999999977 -4.15426887334647e-011
vertex 5.95040561302876 37.9683504747738 1.49999999995853
vertex 5.84118095489748 37.9659258262868 -4.14637296719533e-011
endloop
endfacet
facet normal 0.101025755434597 0.994875527889158 -0.00405964852386157
outer loop
vertex 5.98820187035172 36.0146152283648 1.30026193775007
vertex 5.95375269802953 36.0168433312428 1.30046320093973
vertex 5.97098994962647 36.026575941932 1.49999999996301
endloop
endfacet
facet normal 0.247731161700935 0.968738501478973 -0.0132282755709018
outer loop
vertex 5.95375269802953 36.0168433312428 1.30046320093973
vertex 5.98820187035172 36.0146152283648 1.30026193775007
vertex 5.84118095489748 36.0340741737086 -3.70071251420967e-011
endloop
endfacet
facet normal 0.264197935447975 0.96438238378288 -0.0128867666339362
outer loop
vertex 5.84118095489748 36.0340741737086 -3.70071251420967e-011
vertex 5.98820187035172 36.0146152283648 1.30026193775007
vertex 6.1 35.9999999999977 -3.69285185763957e-011
endloop
endfacet
facet normal 0.00535566442858981 0.999975473927198 0.00451313667032784
outer loop
vertex 6.1 35.9999999999977 -3.69285185763957e-011
vertex 5.98820187035172 36.0146152283648 1.30026193775007
vertex 6.18264479736503 36.006661439753 1.30044384643743
endloop
endfacet
facet normal 0.109990186561016 0.993778856245979 0.017485529408819
outer loop
vertex 6.18264479736503 36.006661439753 1.30044384643743
vertex 5.97098994962647 36.026575941932 1.49999999996301
vertex 6.21060019057182 36.0000561835995 1.49999999996307
endloop
endfacet
facet normal 8.51985834521763e-017 -2.30727083858092e-012 -1.0
outer loop
vertex 7.06592582628907 36.7411809548952 -3.8638828248061e-011
vertex 7.0 28.9999999999977 -2.07778655392232e-011
vertex 6.96602540378444 36.4999999999977 -3.80822373635681e-011
endloop
endfacet
facet normal 8.51985834521763e-017 -2.30727083858092e-012 -1.0
outer loop
vertex 7.0 28.9999999999977 -2.07778655392232e-011
vertex 7.06592582628907 36.7411809548952 -3.8638828248061e-011
vertex 15.0 28.9999999999977 -2.07771605476026e-011
endloop
endfacet
facet normal 8.51985834521763e-017 -2.30727083858092e-012 -1.0
outer loop
vertex 15.0 28.9999999999977 -2.07771605476026e-011
vertex 7.06592582628907 36.7411809548952 -3.8638828248061e-011
vertex 7.1 36.9999999999977 -3.92359561507405e-011
endloop
endfacet
facet normal 8.51985834521763e-017 -2.30727083858092e-012 -1.0
outer loop
vertex 15.0 28.9999999999977 -2.07771605476026e-011
vertex 7.1 36.9999999999977 -3.92359561507405e-011
vertex 13.9340741737109 36.7411809548952 -3.86384757522507e-011
endloop
endfacet
facet normal 8.51985834521763e-017 -2.30727083858092e-012 -1.0
outer loop
vertex 13.9340741737109 36.7411809548952 -3.86384757522507e-011
vertex 7.1 36.9999999999977 -3.92359561507405e-011
vertex 13.9 36.9999999999977 -3.92356036549302e-011
endloop
endfacet
facet normal 8.51985834521763e-017 -2.30727083858092e-012 -1.0
outer loop
vertex 15.0 28.9999999999977 -2.07771605476026e-011
vertex 13.9340741737109 36.7411809548952 -3.86384757522507e-011
vertex 14.0339745962156 36.4999999999977 -3.80818848677578e-011
endloop
endfacet
facet normal 8.51985834521763e-017 -2.30727083858092e-012 -1.0
outer loop
vertex 15.0 28.9999999999977 -2.07771605476026e-011
vertex 14.0339745962156 36.4999999999977 -3.80818848677578e-011
vertex 14.1928932188135 36.2928932188112 -3.76042530447762e-011
endloop
endfacet
facet normal 8.51985834521763e-017 -2.30727083858092e-012 -1.0
outer loop
vertex 15.0 28.9999999999977 -2.07771605476026e-011
vertex 14.1928932188135 36.2928932188112 -3.76042530447762e-011
vertex 14.4 36.1339745962133 -3.72373049062347e-011
endloop
endfacet
facet normal 8.51985834521763e-017 -2.30727083858092e-012 -1.0
outer loop
vertex 15.0 28.9999999999977 -2.07771605476026e-011
vertex 14.4 36.1339745962133 -3.72373049062347e-011
vertex 14.6411809548975 36.0340741737087 -3.70078301337173e-011
endloop
endfacet
facet normal 8.51985834521763e-017 -2.30727083858092e-012 -1.0
outer loop
vertex 15.0 28.9999999999977 -2.07771605476026e-011
vertex 14.6411809548975 36.0340741737087 -3.70078301337173e-011
vertex 14.9 35.9999999999977 -3.69292235680163e-011
endloop
endfacet
facet normal 8.51985834521763e-017 -2.30727083858092e-012 -1.0
outer loop
vertex 15.0 28.9999999999977 -2.07771605476026e-011
vertex 14.9 35.9999999999977 -3.69292235680163e-011
vertex 15.1588190451025 36.0340741737087 -3.70078301337173e-011
endloop
endfacet
facet normal 8.51985834521763e-017 -2.30727083858092e-012 -1.0
outer loop
vertex 15.0 28.9999999999977 -2.07771605476026e-011
vertex 15.1588190451025 36.0340741737087 -3.70078301337173e-011
vertex 15.0 5.99999999999773 3.22907312000353e-011
endloop
endfacet
facet normal 8.51985834521763e-017 -2.30727083858092e-012 -1.0
outer loop
vertex 2.8199664825479e-015 37.4999999999977 -4.03893224421026e-011
vertex 1.9 -2.27289298493361e-012 4.61314791921907e-011
vertex 0.0 2.49999999999772 4.03635902479493e-011
endloop
endfacet
facet normal 8.51985834521763e-017 -2.30727083858092e-012 -1.0
outer loop
vertex 1.9 -2.27289298493361e-012 4.61314791921907e-011
vertex 2.8199664825479e-015 37.4999999999977 -4.03893224421026e-011
vertex 1.9 39.9999999999977 -4.6157211386344e-011
endloop
endfacet
facet normal 8.51985834521763e-017 -2.30727083858092e-012 -1.0
outer loop
vertex 1.9 -2.27289298493361e-012 4.61314791921907e-011
vertex 1.9 39.9999999999977 -4.6157211386344e-011
vertex 5.1 36.9999999999977 -3.92345461674992e-011
endloop
endfacet
facet normal 8.51985834521763e-017 -2.30727083858092e-012 -1.0
outer loop
vertex 5.1 36.9999999999977 -3.92345461674992e-011
vertex 1.9 39.9999999999977 -4.6157211386344e-011
vertex 5.13407417371093 37.2588190451002 -3.98316740701787e-011
endloop
endfacet
facet normal 8.51985834521763e-017 -2.30727083858092e-012 -1.0
outer loop
vertex 5.13407417371093 37.2588190451002 -3.98316740701787e-011
vertex 1.9 39.9999999999977 -4.6157211386344e-011
vertex 5.23397459621556 37.4999999999977 -4.03886174504819e-011
endloop
endfacet
facet normal 8.51985834521763e-017 -2.30727083858092e-012 -1.0
outer loop
vertex 5.23397459621556 37.4999999999977 -4.03886174504819e-011
vertex 1.9 39.9999999999977 -4.6157211386344e-011
vertex 5.39289321881346 37.7071067811843 -4.08662492734635e-011
endloop
endfacet
facet normal 8.51985834521763e-017 -2.30727083858092e-012 -1.0
outer loop
vertex 5.39289321881346 37.7071067811843 -4.08662492734635e-011
vertex 1.9 39.9999999999977 -4.6157211386344e-011
vertex 5.6 37.8660254037822 -4.1233197412005e-011
endloop
endfacet
facet normal 8.51985834521763e-017 -2.30727083858092e-012 -1.0
outer loop
vertex 5.6 37.8660254037822 -4.1233197412005e-011
vertex 1.9 39.9999999999977 -4.6157211386344e-011
vertex 5.84118095489748 37.9659258262868 -4.14637296719533e-011
endloop
endfacet
facet normal 8.51985834521763e-017 -2.30727083858092e-012 -1.0
outer loop
vertex 5.84118095489748 37.9659258262868 -4.14637296719533e-011
vertex 1.9 39.9999999999977 -4.6157211386344e-011
vertex 6.1 37.9999999999977 -4.15426887334647e-011
endloop
endfacet
facet normal 8.51985834521763e-017 -2.30727083858092e-012 -1.0
outer loop
vertex 6.1 37.9999999999977 -4.15426887334647e-011
vertex 1.9 39.9999999999977 -4.6157211386344e-011
vertex 25.1 39.9999999999977 -4.6157211386344e-011
endloop
endfacet
facet normal 8.51985834521763e-017 -2.30727083858092e-012 -1.0
outer loop
vertex 6.1 37.9999999999977 -4.15426887334647e-011
vertex 25.1 39.9999999999977 -4.6157211386344e-011
vertex 6.35881904510252 37.9659258262868 -4.14640821677637e-011
endloop
endfacet
facet normal 8.51985834521763e-017 -2.30727083858092e-012 -1.0
outer loop
vertex 6.35881904510252 37.9659258262868 -4.14640821677637e-011
vertex 25.1 39.9999999999977 -4.6157211386344e-011
vertex 6.6 37.8660254037822 -4.12339024036257e-011
endloop
endfacet
facet normal 8.51985834521763e-017 -2.30727083858092e-012 -1.0
outer loop
vertex 6.6 37.8660254037822 -4.12339024036257e-011
vertex 25.1 39.9999999999977 -4.6157211386344e-011
vertex 6.80710678118655 37.7071067811843 -4.08673067608944e-011
endloop
endfacet
facet normal 8.51985834521763e-017 -2.30727083858092e-012 -1.0
outer loop
vertex 6.80710678118655 37.7071067811843 -4.08673067608944e-011
vertex 25.1 39.9999999999977 -4.6157211386344e-011
vertex 6.96602540378444 37.4999999999977 -4.03896749379129e-011
endloop
endfacet
facet normal 8.51985834521763e-017 -2.30727083858092e-012 -1.0
outer loop
vertex 6.96602540378444 37.4999999999977 -4.03896749379129e-011
vertex 25.1 39.9999999999977 -4.6157211386344e-011
vertex 7.06592582628907 37.2588190451002 -3.983308405342e-011
endloop
endfacet
facet normal 8.51985834521763e-017 -2.30727083858092e-012 -1.0
outer loop
vertex 7.06592582628907 37.2588190451002 -3.983308405342e-011
vertex 25.1 39.9999999999977 -4.6157211386344e-011
vertex 7.1 36.9999999999977 -3.92359561507405e-011
endloop
endfacet
facet normal 8.51985834521763e-017 -2.30727083858092e-012 -1.0
outer loop
vertex 7.1 36.9999999999977 -3.92359561507405e-011
vertex 25.1 39.9999999999977 -4.6157211386344e-011
vertex 14.6411809548975 37.9659258262868 -4.14640821677637e-011
endloop
endfacet
facet normal 8.51985834521763e-017 -2.30727083858092e-012 -1.0
outer loop
vertex 7.1 36.9999999999977 -3.92359561507405e-011
vertex 14.6411809548975 37.9659258262868 -4.14640821677637e-011
vertex 14.4 37.8660254037822 -4.12335499078154e-011
endloop
endfacet
facet normal 8.51985834521763e-017 -2.30727083858092e-012 -1.0
outer loop
vertex 7.1 36.9999999999977 -3.92359561507405e-011
vertex 14.4 37.8660254037822 -4.12335499078154e-011
vertex 14.1928932188135 37.7071067811843 -4.08669542650841e-011
endloop
endfacet
facet normal 8.51985834521763e-017 -2.30727083858092e-012 -1.0
outer loop
vertex 7.1 36.9999999999977 -3.92359561507405e-011
vertex 14.1928932188135 37.7071067811843 -4.08669542650841e-011
vertex 14.0339745962156 37.4999999999977 -4.03893224421026e-011
endloop
endfacet
facet normal 8.51985834521763e-017 -2.30727083858092e-012 -1.0
outer loop
vertex 7.1 36.9999999999977 -3.92359561507405e-011
vertex 14.0339745962156 37.4999999999977 -4.03893224421026e-011
vertex 13.9340741737109 37.2588190451002 -3.98327315576097e-011
endloop
endfacet
facet normal 8.51985834521763e-017 -2.30727083858092e-012 -1.0
outer loop
vertex 7.1 36.9999999999977 -3.92359561507405e-011
vertex 13.9340741737109 37.2588190451002 -3.98327315576097e-011
vertex 13.9 36.9999999999977 -3.92356036549302e-011
endloop
endfacet
facet normal 8.51985834521763e-017 -2.30727083858092e-012 -1.0
outer loop
vertex 14.6411809548975 37.9659258262868 -4.14640821677637e-011
vertex 25.1 39.9999999999977 -4.6157211386344e-011
vertex 14.9 37.9999999999977 -4.15426887334647e-011
endloop
endfacet
facet normal 8.51985834521763e-017 -2.30727083858092e-012 -1.0
outer loop
vertex 14.9 37.9999999999977 -4.15426887334647e-011
vertex 25.1 39.9999999999977 -4.6157211386344e-011
vertex 15.1588190451025 37.9659258262868 -4.14640821677637e-011
endloop
endfacet
facet normal 8.51985834521763e-017 -2.30727083858092e-012 -1.0
outer loop
vertex 15.1588190451025 37.9659258262868 -4.14640821677637e-011
vertex 25.1 39.9999999999977 -4.6157211386344e-011
vertex 15.4 37.8660254037822 -4.12335499078154e-011
endloop
endfacet
facet normal 8.51985834521763e-017 -2.30727083858092e-012 -1.0
outer loop
vertex 15.4 37.8660254037822 -4.12335499078154e-011
vertex 25.1 39.9999999999977 -4.6157211386344e-011
vertex 15.6071067811866 37.7071067811843 -4.08669542650841e-011
endloop
endfacet
facet normal 8.51985834521763e-017 -2.30727083858092e-012 -1.0
outer loop
vertex 15.6071067811866 37.7071067811843 -4.08669542650841e-011
vertex 25.1 39.9999999999977 -4.6157211386344e-011
vertex 15.7660254037844 37.4999999999977 -4.03893224421026e-011
endloop
endfacet
facet normal 8.51985834521763e-017 -2.30727083858092e-012 -1.0
outer loop
vertex 15.7660254037844 37.4999999999977 -4.03893224421026e-011
vertex 25.1 39.9999999999977 -4.6157211386344e-011
vertex 15.8659258262891 37.2588190451002 -3.98327315576097e-011
endloop
endfacet
facet normal 8.51985834521763e-017 -2.30727083858092e-012 -1.0
outer loop
vertex 15.8659258262891 37.2588190451002 -3.98327315576097e-011
vertex 25.1 39.9999999999977 -4.6157211386344e-011
vertex 15.9 36.9999999999977 -3.92356036549302e-011
endloop
endfacet
facet normal 8.51985834521763e-017 -2.30727083858092e-012 -1.0
outer loop
vertex 15.9 36.9999999999977 -3.92356036549302e-011
vertex 25.1 39.9999999999977 -4.6157211386344e-011
vertex 22.0 21.9999999999977 -4.62509752718887e-012
endloop
endfacet
facet normal 8.51985834521763e-017 -2.30727083858092e-012 -1.0
outer loop
vertex 22.0 21.9999999999977 -4.62509752718887e-012
vertex 25.1 39.9999999999977 -4.6157211386344e-011
vertex 27.0 21.9999999999977 -4.62404003975791e-012
endloop
endfacet
facet normal 8.51985834521763e-017 -2.30727083858092e-012 -1.0
outer loop
vertex 27.0 21.9999999999977 -4.62404003975791e-012
vertex 25.1 39.9999999999977 -4.6157211386344e-011
vertex 27.0 37.4999999999977 -4.03893224421026e-011
endloop
endfacet
facet normal 8.51985834521763e-017 -2.30727083858092e-012 -1.0
outer loop
vertex 1.9 -2.27289298493361e-012 4.61314791921907e-011
vertex 7.0 5.99999999999773 3.22882637293631e-011
vertex 22.0 -2.27289298493361e-012 4.61357091419146e-011
endloop
endfacet
facet normal 8.51985834521763e-017 -2.30727083858092e-012 -1.0
outer loop
vertex 7.0 5.99999999999773 3.22882637293631e-011
vertex 1.9 -2.27289298493361e-012 4.61314791921907e-011
vertex 5.1 36.9999999999977 -3.92345461674992e-011
endloop
endfacet
facet normal 8.51985834521763e-017 -2.30727083858092e-012 -1.0
outer loop
vertex 7.0 5.99999999999773 3.22882637293631e-011
vertex 5.1 36.9999999999977 -3.92345461674992e-011
vertex 5.13407417371094 36.7411809548952 -3.86374182648197e-011
endloop
endfacet
facet normal 8.51985834521763e-017 -2.30727083858092e-012 -1.0
outer loop
vertex 7.0 5.99999999999773 3.22882637293631e-011
vertex 5.13407417371094 36.7411809548952 -3.86374182648197e-011
vertex 5.23397459621556 36.4999999999977 -3.80808273803268e-011
endloop
endfacet
facet normal 8.51985834521763e-017 -2.30727083858092e-012 -1.0
outer loop
vertex 7.0 5.99999999999773 3.22882637293631e-011
vertex 5.23397459621556 36.4999999999977 -3.80808273803268e-011
vertex 5.39289321881346 36.2928932188112 -3.76031955573453e-011
endloop
endfacet
facet normal 8.51985834521763e-017 -2.30727083858092e-012 -1.0
outer loop
vertex 7.0 5.99999999999773 3.22882637293631e-011
vertex 5.39289321881346 36.2928932188112 -3.76031955573453e-011
vertex 5.6 36.1339745962133 -3.72362474188037e-011
endloop
endfacet
facet normal 8.51985834521763e-017 -2.30727083858092e-012 -1.0
outer loop
vertex 7.0 5.99999999999773 3.22882637293631e-011
vertex 5.6 36.1339745962133 -3.72362474188037e-011
vertex 5.84118095489748 36.0340741737086 -3.70071251420967e-011
endloop
endfacet
facet normal 8.51985834521763e-017 -2.30727083858092e-012 -1.0
outer loop
vertex 7.0 5.99999999999773 3.22882637293631e-011
vertex 5.84118095489748 36.0340741737086 -3.70071251420967e-011
vertex 6.1 35.9999999999977 -3.69285185763957e-011
endloop
endfacet
facet normal 8.51985834521763e-017 -2.30727083858092e-012 -1.0
outer loop
vertex 7.0 5.99999999999773 3.22882637293631e-011
vertex 6.1 35.9999999999977 -3.69285185763957e-011
vertex 6.35881904510252 36.0340741737087 -3.7007477637907e-011
endloop
endfacet
facet normal 8.51985834521763e-017 -2.30727083858092e-012 -1.0
outer loop
vertex 7.0 5.99999999999773 3.22882637293631e-011
vertex 6.35881904510252 36.0340741737087 -3.7007477637907e-011
vertex 6.6 36.1339745962133 -3.72373049062347e-011
endloop
endfacet
facet normal 8.51985834521763e-017 -2.30727083858092e-012 -1.0
outer loop
vertex 7.0 5.99999999999773 3.22882637293631e-011
vertex 6.6 36.1339745962133 -3.72373049062347e-011
vertex 6.80710678118655 36.2928932188112 -3.76042530447762e-011
endloop
endfacet
facet normal 8.51985834521763e-017 -2.30727083858092e-012 -1.0
outer loop
vertex 7.0 5.99999999999773 3.22882637293631e-011
vertex 6.80710678118655 36.2928932188112 -3.76042530447762e-011
vertex 6.96602540378444 36.4999999999977 -3.80822373635681e-011
endloop
endfacet
facet normal 8.51985834521763e-017 -2.30727083858092e-012 -1.0
outer loop
vertex 7.0 5.99999999999773 3.22882637293631e-011
vertex 6.96602540378444 36.4999999999977 -3.80822373635681e-011
vertex 7.0 28.9999999999977 -2.07778655392232e-011
endloop
endfacet
facet normal 8.51985834521763e-017 -2.30727083858092e-012 -1.0
outer loop
vertex 22.0 -2.27289298493361e-012 4.61357091419146e-011
vertex 7.0 5.99999999999773 3.22882637293631e-011
vertex 15.0 5.99999999999773 3.22907312000353e-011
endloop
endfacet
facet normal 8.51985834521763e-017 -2.30727083858092e-012 -1.0
outer loop
vertex 22.0 -2.27289298493361e-012 4.61357091419146e-011
vertex 15.0 5.99999999999773 3.22907312000353e-011
vertex 15.1588190451025 36.0340741737087 -3.70078301337173e-011
endloop
endfacet
facet normal 8.51985834521763e-017 -2.30727083858092e-012 -1.0
outer loop
vertex 22.0 -2.27289298493361e-012 4.61357091419146e-011
vertex 15.1588190451025 36.0340741737087 -3.70078301337173e-011
vertex 15.4 36.1339745962133 -3.72373049062347e-011
endloop
endfacet
facet normal 8.51985834521763e-017 -2.30727083858092e-012 -1.0
outer loop
vertex 22.0 -2.27289298493361e-012 4.61357091419146e-011
vertex 15.4 36.1339745962133 -3.72373049062347e-011
vertex 15.6071067811866 36.2928932188112 -3.76042530447762e-011
endloop
endfacet
facet normal 8.51985834521763e-017 -2.30727083858092e-012 -1.0
outer loop
vertex 22.0 -2.27289298493361e-012 4.61357091419146e-011
vertex 15.6071067811866 36.2928932188112 -3.76042530447762e-011
vertex 15.7660254037844 36.4999999999977 -3.80818848677578e-011
endloop
endfacet
facet normal 8.51985834521763e-017 -2.30727083858092e-012 -1.0
outer loop
vertex 22.0 -2.27289298493361e-012 4.61357091419146e-011
vertex 15.7660254037844 36.4999999999977 -3.80818848677578e-011
vertex 15.8659258262891 36.7411809548952 -3.86384757522507e-011
endloop
endfacet
facet normal 8.51985834521763e-017 -2.30727083858092e-012 -1.0
outer loop
vertex 22.0 -2.27289298493361e-012 4.61357091419146e-011
vertex 15.8659258262891 36.7411809548952 -3.86384757522507e-011
vertex 15.9 36.9999999999977 -3.92356036549302e-011
endloop
endfacet
facet normal 8.51985834521763e-017 -2.30727083858092e-012 -1.0
outer loop
vertex 22.0 -2.27289298493361e-012 4.61357091419146e-011
vertex 15.9 36.9999999999977 -3.92356036549302e-011
vertex 22.0 21.9999999999977 -4.62509752718887e-012
endloop
endfacet
facet normal 7.17921280352581e-028 1.0 -2.30725621481236e-012
outer loop
vertex 15.0 5.99999999999773 3.22907312000353e-011
vertex 7.0 6.00000000000073 1.30005295627572
vertex 15.0 6.00000000000073 1.30005295627572
endloop
endfacet
facet normal 7.17921280352581e-028 1.0 -2.30725621481236e-012
outer loop
vertex 7.0 6.00000000000073 1.30005295627572
vertex 15.0 5.99999999999773 3.22907312000353e-011
vertex 7.0 5.99999999999773 3.22882637293631e-011
endloop
endfacet
facet normal 1.0 4.57240332887151e-028 1.98178302792134e-016
outer loop
vertex 7.0 6.00000000000073 1.30005295627572
vertex 7.0 28.9999999999977 -2.07778655392232e-011
vertex 7.0 29.0000000000008 1.30005295622265
endloop
endfacet
facet normal 1.0 4.57240332887151e-028 1.98178302792134e-016
outer loop
vertex 7.0 28.9999999999977 -2.07778655392232e-011
vertex 7.0 6.00000000000073 1.30005295627572
vertex 7.0 5.99999999999773 3.22882637293631e-011
endloop
endfacet
facet normal -1.96574961163588e-028 -1.0 2.30725621481236e-012
outer loop
vertex 7.0 28.9999999999977 -2.07778655392232e-011
vertex 15.0 29.0000000000008 1.30005295622265
vertex 7.0 29.0000000000008 1.30005295622265
endloop
endfacet
facet normal -1.96574961163588e-028 -1.0 2.30725621481236e-012
outer loop
vertex 15.0 29.0000000000008 1.30005295622265
vertex 7.0 28.9999999999977 -2.07778655392232e-011
vertex 15.0 28.9999999999977 -2.07771605476026e-011
endloop
endfacet
facet normal -1.0 -4.57255908629084e-028 -1.98178302792134e-016
outer loop
vertex 15.0 28.9999999999977 -2.07771605476026e-011
vertex 15.0 6.00000000000073 1.30005295627572
vertex 15.0 29.0000000000008 1.30005295622265
endloop
endfacet
facet normal -1.0 -4.57255908629084e-028 -1.98178302792134e-016
outer loop
vertex 15.0 6.00000000000073 1.30005295627572
vertex 15.0 28.9999999999977 -2.07771605476026e-011
vertex 15.0 5.99999999999773 3.22907312000353e-011
endloop
endfacet
endsolid SCD30_105
